<mxfile host="app.diagrams.net" agent="Mozilla/5.0 (Macintosh; Intel Mac OS X 10_15_7) AppleWebKit/537.36 (KHTML, like Gecko) Chrome/138.0.0.0 Safari/537.36" version="28.0.4">
  <diagram name="Page-1" id="Dl6jn5FF9fqG36aDG5Ob">
    <mxGraphModel dx="1103" dy="1897" grid="1" gridSize="10" guides="1" tooltips="1" connect="1" arrows="1" fold="1" page="1" pageScale="1" pageWidth="827" pageHeight="1169" math="0" shadow="0">
      <root>
        <mxCell id="0" />
        <mxCell id="1" parent="0" />
        <mxCell id="yukqBfJGvnLZqiaPEwCo-10" value="" style="whiteSpace=wrap;html=1;" parent="1" vertex="1">
          <mxGeometry x="10.84" y="-1150" width="799.16" height="190" as="geometry" />
        </mxCell>
        <mxCell id="w4QK7ncXABPOGDVdGbdG-21" value="" style="rounded=0;whiteSpace=wrap;html=1;fillColor=none;strokeWidth=2;strokeColor=default;" parent="1" vertex="1">
          <mxGeometry x="255.17999999999995" y="-1090" width="105.79" height="110" as="geometry" />
        </mxCell>
        <mxCell id="w4QK7ncXABPOGDVdGbdG-17" value="Python" style="rounded=0;whiteSpace=wrap;html=1;fillColor=light-dark(#ffd243, #281d00);strokeColor=#d6b656;gradientColor=light-dark(#3772a0, #ededed);gradientDirection=east;" parent="1" vertex="1">
          <mxGeometry x="265.17999999999995" y="-1030" width="85.79" height="40" as="geometry" />
        </mxCell>
        <mxCell id="w4QK7ncXABPOGDVdGbdG-20" value="SpringBoot" style="rounded=0;whiteSpace=wrap;html=1;fillColor=light-dark(#68bd45, #1f2f1e);strokeColor=light-dark(#587845, #446e2c);" parent="1" vertex="1">
          <mxGeometry x="265.17999999999995" y="-1080" width="85.79" height="40" as="geometry" />
        </mxCell>
        <mxCell id="w4QK7ncXABPOGDVdGbdG-22" value="React" style="rounded=0;whiteSpace=wrap;html=1;fillColor=light-dark(#60dcfb, #1d293b);strokeColor=light-dark(#46aec8, #5c79a3);" parent="1" vertex="1">
          <mxGeometry x="137.96" y="-1090" width="90" height="40" as="geometry" />
        </mxCell>
        <mxCell id="w4QK7ncXABPOGDVdGbdG-27" value="" style="shape=image;verticalLabelPosition=bottom;labelBackgroundColor=default;verticalAlign=top;aspect=fixed;imageAspect=0;image=https://upload.wikimedia.org/wikipedia/commons/thumb/a/a7/React-icon.svg/250px-React-icon.svg.png;" parent="1" vertex="1">
          <mxGeometry x="160.54000000000005" y="-1035" width="44.84" height="40" as="geometry" />
        </mxCell>
        <mxCell id="w4QK7ncXABPOGDVdGbdG-29" value="" style="shape=image;verticalLabelPosition=bottom;labelBackgroundColor=default;verticalAlign=top;aspect=fixed;imageAspect=0;image=https://www.embarc.de/img/architektur-portraets/02/spring-boot-logo.png;" parent="1" vertex="1">
          <mxGeometry x="371.92" y="-1080.3" width="43.76" height="39.26" as="geometry" />
        </mxCell>
        <mxCell id="w4QK7ncXABPOGDVdGbdG-31" value="" style="shape=image;verticalLabelPosition=bottom;labelBackgroundColor=default;verticalAlign=top;aspect=fixed;imageAspect=0;image=https://149860134.v2.pressablecdn.com/wp-content/uploads/pythoned.png;" parent="1" vertex="1">
          <mxGeometry x="368.8" y="-1030.74" width="50" height="50" as="geometry" />
        </mxCell>
        <mxCell id="w4QK7ncXABPOGDVdGbdG-62" value="" style="endArrow=classic;dashed=1;html=1;strokeWidth=2;rounded=0;endFill=1;" parent="1" edge="1">
          <mxGeometry width="50" height="50" relative="1" as="geometry">
            <mxPoint x="22.70000000000001" y="-1020.5699999999999" as="sourcePoint" />
            <mxPoint x="87.96000000000001" y="-1020" as="targetPoint" />
          </mxGeometry>
        </mxCell>
        <mxCell id="w4QK7ncXABPOGDVdGbdG-63" value="Workflow" style="text;html=1;align=center;verticalAlign=middle;whiteSpace=wrap;rounded=0;" parent="1" vertex="1">
          <mxGeometry x="27.960000000000015" y="-1060.74" width="60" height="30" as="geometry" />
        </mxCell>
        <mxCell id="yukqBfJGvnLZqiaPEwCo-8" value="Legend" style="text;strokeColor=none;align=center;fillColor=none;html=1;verticalAlign=middle;whiteSpace=wrap;rounded=0;fontSize=25;" parent="1" vertex="1">
          <mxGeometry x="37.080000000000005" y="-1140" width="60" height="30" as="geometry" />
        </mxCell>
        <mxCell id="yukqBfJGvnLZqiaPEwCo-11" value="&lt;span style=&quot;text-align: start; caret-color: rgb(0, 0, 0); color: light-dark(rgb(0, 0, 0), rgb(255, 255, 255));&quot;&gt;Top level Architecture&lt;/span&gt;" style="text;strokeColor=none;align=center;fillColor=none;html=1;verticalAlign=middle;whiteSpace=wrap;rounded=0;fontStyle=1;fontSize=24;" parent="1" vertex="1">
          <mxGeometry x="10.840000000000003" y="-850" width="282.5" height="30" as="geometry" />
        </mxCell>
        <mxCell id="yukqBfJGvnLZqiaPEwCo-13" value="User / Student" style="rounded=0;whiteSpace=wrap;html=1;" parent="1" vertex="1">
          <mxGeometry x="1665.3700000000001" y="620" width="130" height="40" as="geometry" />
        </mxCell>
        <mxCell id="yukqBfJGvnLZqiaPEwCo-14" value="&lt;b&gt;Authentication Service&lt;/b&gt;&lt;br&gt;&lt;br&gt;Controller (Endpoint Management)&lt;br&gt;Service (Auth Logic)&lt;br&gt;(DB) Token Storage&lt;br&gt;(DB) User Info" style="rounded=0;whiteSpace=wrap;html=1;fillColor=#d5e8d4;strokeColor=#82b366;" parent="1" vertex="1">
          <mxGeometry x="2095.37" y="310" width="130" height="150" as="geometry" />
        </mxCell>
        <mxCell id="yukqBfJGvnLZqiaPEwCo-15" value="&lt;b&gt;Upload Service&lt;/b&gt;&lt;br&gt;&lt;br&gt;Controller (Upload Endpoint)&lt;br&gt;Service (Process Files &amp;amp; Storage Management)&lt;br&gt;(DB) File Storage" style="rounded=0;whiteSpace=wrap;html=1;fillColor=#d5e8d4;strokeColor=#82b366;" parent="1" vertex="1">
          <mxGeometry x="2095.37" y="480" width="130" height="120" as="geometry" />
        </mxCell>
        <mxCell id="yukqBfJGvnLZqiaPEwCo-17" value="&lt;b&gt;Course Management Service&lt;/b&gt;&lt;br&gt;&lt;br&gt;Controller (CRUD Endpoint)&lt;br&gt;Service (Manage Courses)&lt;br&gt;(DB) Course Storage" style="rounded=0;whiteSpace=wrap;html=1;fillColor=#d5e8d4;strokeColor=#82b366;" parent="1" vertex="1">
          <mxGeometry x="2095.37" y="620" width="130" height="120" as="geometry" />
        </mxCell>
        <mxCell id="yukqBfJGvnLZqiaPEwCo-18" value="&lt;b&gt;GenAI Service&lt;/b&gt;&lt;br&gt;&lt;br&gt;Preprocessing Material&lt;br&gt;LLM Connector&lt;br&gt;Summarize Part&lt;br&gt;Response Processing" style="rounded=0;whiteSpace=wrap;html=1;fillColor=#fff2cc;strokeColor=#d6b656;gradientColor=light-dark(#dae8fc, #ededed);gradientDirection=east;" parent="1" vertex="1">
          <mxGeometry x="2095.37" y="765" width="130" height="135" as="geometry" />
        </mxCell>
        <mxCell id="yukqBfJGvnLZqiaPEwCo-20" style="edgeStyle=orthogonalEdgeStyle;rounded=0;orthogonalLoop=1;jettySize=auto;html=1;exitX=1;exitY=0.5;exitDx=0;exitDy=0;entryX=-0.067;entryY=0.409;entryDx=0;entryDy=0;entryPerimeter=0;endArrow=none;startFill=0;" parent="1" source="yukqBfJGvnLZqiaPEwCo-21" target="yukqBfJGvnLZqiaPEwCo-22" edge="1">
          <mxGeometry relative="1" as="geometry">
            <Array as="points">
              <mxPoint x="2021.3700000000001" y="640" />
            </Array>
          </mxGeometry>
        </mxCell>
        <mxCell id="yukqBfJGvnLZqiaPEwCo-21" value="Frontend / UI" style="rounded=0;whiteSpace=wrap;html=1;fillColor=light-dark(#a4e8f9, #1d293b);strokeColor=#6c8ebf;" parent="1" vertex="1">
          <mxGeometry x="1841.6200000000001" y="620" width="130" height="40" as="geometry" />
        </mxCell>
        <mxCell id="yukqBfJGvnLZqiaPEwCo-22" value="" style="rounded=0;whiteSpace=wrap;html=1;" parent="1" vertex="1">
          <mxGeometry x="2021.6200000000001" y="350" width="23.75" height="550" as="geometry" />
        </mxCell>
        <mxCell id="yukqBfJGvnLZqiaPEwCo-23" value="" style="endArrow=none;html=1;rounded=0;exitX=1;exitY=0.5;exitDx=0;exitDy=0;entryX=0;entryY=0.5;entryDx=0;entryDy=0;startFill=0;" parent="1" source="yukqBfJGvnLZqiaPEwCo-13" target="yukqBfJGvnLZqiaPEwCo-21" edge="1">
          <mxGeometry width="50" height="50" relative="1" as="geometry">
            <mxPoint x="1825.3700000000001" y="710" as="sourcePoint" />
            <mxPoint x="1875.3700000000001" y="660" as="targetPoint" />
          </mxGeometry>
        </mxCell>
        <mxCell id="yukqBfJGvnLZqiaPEwCo-24" style="edgeStyle=orthogonalEdgeStyle;rounded=0;orthogonalLoop=1;jettySize=auto;html=1;exitX=1.002;exitY=0.062;exitDx=0;exitDy=0;entryX=0;entryY=0.5;entryDx=0;entryDy=0;exitPerimeter=0;endArrow=none;startFill=0;" parent="1" source="yukqBfJGvnLZqiaPEwCo-22" target="yukqBfJGvnLZqiaPEwCo-14" edge="1">
          <mxGeometry relative="1" as="geometry">
            <mxPoint x="2045.3700000000001" y="519.8" as="sourcePoint" />
            <mxPoint x="2095.37" y="519.8" as="targetPoint" />
            <Array as="points" />
          </mxGeometry>
        </mxCell>
        <mxCell id="yukqBfJGvnLZqiaPEwCo-25" style="edgeStyle=orthogonalEdgeStyle;rounded=0;orthogonalLoop=1;jettySize=auto;html=1;entryX=0;entryY=0.5;entryDx=0;entryDy=0;endArrow=none;startFill=0;" parent="1" target="yukqBfJGvnLZqiaPEwCo-15" edge="1">
          <mxGeometry relative="1" as="geometry">
            <mxPoint x="2044.3700000000001" y="540" as="sourcePoint" />
            <mxPoint x="2105.37" y="530" as="targetPoint" />
            <Array as="points">
              <mxPoint x="2045.3700000000001" y="540" />
            </Array>
          </mxGeometry>
        </mxCell>
        <mxCell id="yukqBfJGvnLZqiaPEwCo-26" style="edgeStyle=orthogonalEdgeStyle;rounded=0;orthogonalLoop=1;jettySize=auto;html=1;entryX=0;entryY=0.5;entryDx=0;entryDy=0;endArrow=none;startFill=0;" parent="1" target="yukqBfJGvnLZqiaPEwCo-17" edge="1">
          <mxGeometry relative="1" as="geometry">
            <mxPoint x="2045.3700000000001" y="680" as="sourcePoint" />
            <mxPoint x="2094.37" y="639.8600000000001" as="targetPoint" />
            <Array as="points">
              <mxPoint x="2045.3700000000001" y="680" />
            </Array>
          </mxGeometry>
        </mxCell>
        <mxCell id="yukqBfJGvnLZqiaPEwCo-27" style="edgeStyle=orthogonalEdgeStyle;rounded=0;orthogonalLoop=1;jettySize=auto;html=1;exitX=1.014;exitY=0.679;exitDx=0;exitDy=0;entryX=0;entryY=0.5;entryDx=0;entryDy=0;exitPerimeter=0;endArrow=none;startFill=0;" parent="1" source="yukqBfJGvnLZqiaPEwCo-22" target="yukqBfJGvnLZqiaPEwCo-18" edge="1">
          <mxGeometry relative="1" as="geometry">
            <mxPoint x="2035.3700000000001" y="699.8600000000001" as="sourcePoint" />
            <mxPoint x="2085.37" y="699.8600000000001" as="targetPoint" />
            <Array as="points">
              <mxPoint x="2045.8700000000001" y="833" />
              <mxPoint x="2070.87" y="833" />
            </Array>
          </mxGeometry>
        </mxCell>
        <mxCell id="yukqBfJGvnLZqiaPEwCo-29" value="" style="endArrow=classic;html=1;rounded=0;dashed=1;exitX=0.5;exitY=1;exitDx=0;exitDy=0;entryX=0.5;entryY=0;entryDx=0;entryDy=0;" parent="1" source="yukqBfJGvnLZqiaPEwCo-14" target="yukqBfJGvnLZqiaPEwCo-15" edge="1">
          <mxGeometry width="50" height="50" relative="1" as="geometry">
            <mxPoint x="2135.37" y="630" as="sourcePoint" />
            <mxPoint x="2185.37" y="580" as="targetPoint" />
          </mxGeometry>
        </mxCell>
        <mxCell id="yukqBfJGvnLZqiaPEwCo-30" value="" style="endArrow=classic;html=1;rounded=0;dashed=1;exitX=0.5;exitY=1;exitDx=0;exitDy=0;entryX=0.5;entryY=0;entryDx=0;entryDy=0;" parent="1" source="yukqBfJGvnLZqiaPEwCo-15" target="yukqBfJGvnLZqiaPEwCo-17" edge="1">
          <mxGeometry width="50" height="50" relative="1" as="geometry">
            <mxPoint x="2170.37" y="550" as="sourcePoint" />
            <mxPoint x="2170.37" y="570" as="targetPoint" />
          </mxGeometry>
        </mxCell>
        <mxCell id="yukqBfJGvnLZqiaPEwCo-31" value="" style="endArrow=none;html=1;rounded=0;dashed=1;exitX=0.5;exitY=1;exitDx=0;exitDy=0;entryX=0.5;entryY=0;entryDx=0;entryDy=0;startArrow=classic;startFill=1;endFill=0;" parent="1" source="yukqBfJGvnLZqiaPEwCo-17" target="yukqBfJGvnLZqiaPEwCo-18" edge="1">
          <mxGeometry width="50" height="50" relative="1" as="geometry">
            <mxPoint x="2180.37" y="560" as="sourcePoint" />
            <mxPoint x="2180.37" y="580" as="targetPoint" />
          </mxGeometry>
        </mxCell>
        <mxCell id="yukqBfJGvnLZqiaPEwCo-33" style="edgeStyle=orthogonalEdgeStyle;rounded=0;orthogonalLoop=1;jettySize=auto;html=1;exitX=1;exitY=0.5;exitDx=0;exitDy=0;startArrow=none;startFill=0;entryX=0;entryY=0.5;entryDx=0;entryDy=0;entryPerimeter=0;endArrow=none;" parent="1" source="yukqBfJGvnLZqiaPEwCo-14" target="yukqBfJGvnLZqiaPEwCo-40" edge="1">
          <mxGeometry relative="1" as="geometry">
            <mxPoint x="2285.37" y="550" as="sourcePoint" />
            <mxPoint x="2305.37" y="520" as="targetPoint" />
          </mxGeometry>
        </mxCell>
        <mxCell id="yukqBfJGvnLZqiaPEwCo-34" style="edgeStyle=orthogonalEdgeStyle;rounded=0;orthogonalLoop=1;jettySize=auto;html=1;exitX=1;exitY=0.5;exitDx=0;exitDy=0;startArrow=none;startFill=0;endArrow=none;" parent="1" source="yukqBfJGvnLZqiaPEwCo-17" target="yukqBfJGvnLZqiaPEwCo-40" edge="1">
          <mxGeometry relative="1" as="geometry">
            <mxPoint x="2235.37" y="590" as="sourcePoint" />
            <mxPoint x="2305.37" y="639.8400000000001" as="targetPoint" />
          </mxGeometry>
        </mxCell>
        <mxCell id="yukqBfJGvnLZqiaPEwCo-36" value="" style="endArrow=classic;html=1;rounded=0;dashed=1;exitX=1;exitY=0.75;exitDx=0;exitDy=0;entryX=1.01;entryY=0.521;entryDx=0;entryDy=0;entryPerimeter=0;" parent="1" source="yukqBfJGvnLZqiaPEwCo-15" target="yukqBfJGvnLZqiaPEwCo-18" edge="1">
          <mxGeometry width="50" height="50" relative="1" as="geometry">
            <mxPoint x="2170.37" y="610" as="sourcePoint" />
            <mxPoint x="2170.37" y="630" as="targetPoint" />
            <Array as="points">
              <mxPoint x="2245.37" y="570" />
              <mxPoint x="2245.37" y="640" />
              <mxPoint x="2244.37" y="835" />
            </Array>
          </mxGeometry>
        </mxCell>
        <mxCell id="yukqBfJGvnLZqiaPEwCo-39" value="API Gateway" style="text;strokeColor=none;align=center;fillColor=none;html=1;verticalAlign=middle;whiteSpace=wrap;rounded=0;fontStyle=1" parent="1" vertex="1">
          <mxGeometry x="2003.5000000000002" y="310" width="60" height="30" as="geometry" />
        </mxCell>
        <mxCell id="yukqBfJGvnLZqiaPEwCo-40" value="User Data,&amp;nbsp;&lt;div&gt;Files,&amp;nbsp;&lt;/div&gt;&lt;div&gt;Content&lt;/div&gt;" style="shape=cylinder3;whiteSpace=wrap;html=1;boundedLbl=1;backgroundOutline=1;size=15;" parent="1" vertex="1">
          <mxGeometry x="2345.37" y="510" width="100" height="135" as="geometry" />
        </mxCell>
        <mxCell id="yukqBfJGvnLZqiaPEwCo-41" value="" style="shape=image;verticalLabelPosition=bottom;labelBackgroundColor=default;verticalAlign=top;aspect=fixed;imageAspect=0;image=https://www.postgresql.org/media/img/about/press/elephant.png;" parent="1" vertex="1">
          <mxGeometry x="2412.87" y="500" width="45" height="46.42" as="geometry" />
        </mxCell>
        <mxCell id="yukqBfJGvnLZqiaPEwCo-43" style="edgeStyle=orthogonalEdgeStyle;rounded=0;orthogonalLoop=1;jettySize=auto;html=1;startArrow=none;startFill=0;entryX=0;entryY=0.5;entryDx=0;entryDy=0;entryPerimeter=0;endArrow=none;" parent="1" source="yukqBfJGvnLZqiaPEwCo-15" target="yukqBfJGvnLZqiaPEwCo-40" edge="1">
          <mxGeometry relative="1" as="geometry">
            <mxPoint x="2235.37" y="530" as="sourcePoint" />
            <mxPoint x="2355.37" y="588" as="targetPoint" />
          </mxGeometry>
        </mxCell>
        <mxCell id="yukqBfJGvnLZqiaPEwCo-74" value="User / Student" style="rounded=0;whiteSpace=wrap;html=1;" parent="1" vertex="1">
          <mxGeometry x="19.840000000000003" y="-665" width="130" height="40" as="geometry" />
        </mxCell>
        <mxCell id="yukqBfJGvnLZqiaPEwCo-75" value="Authentication Service" style="rounded=0;whiteSpace=wrap;html=1;fillColor=#d5e8d4;strokeColor=#82b366;" parent="1" vertex="1">
          <mxGeometry x="439.17999999999995" y="-777.5" width="130" height="40" as="geometry" />
        </mxCell>
        <mxCell id="yukqBfJGvnLZqiaPEwCo-76" value="Upload Files Service" style="rounded=0;whiteSpace=wrap;html=1;fillColor=#d5e8d4;strokeColor=#82b366;" parent="1" vertex="1">
          <mxGeometry x="439.17999999999995" y="-717.5" width="130" height="40" as="geometry" />
        </mxCell>
        <mxCell id="yukqBfJGvnLZqiaPEwCo-78" value="Course Management Service" style="rounded=0;whiteSpace=wrap;html=1;fillColor=#d5e8d4;strokeColor=#82b366;" parent="1" vertex="1">
          <mxGeometry x="439.17999999999995" y="-645" width="130" height="40" as="geometry" />
        </mxCell>
        <mxCell id="yukqBfJGvnLZqiaPEwCo-79" value="GenAI Service" style="rounded=0;whiteSpace=wrap;html=1;fillColor=#fff2cc;strokeColor=#d6b656;gradientColor=light-dark(#dae8fc, #ededed);gradientDirection=east;" parent="1" vertex="1">
          <mxGeometry x="439.17999999999995" y="-570" width="130" height="40" as="geometry" />
        </mxCell>
        <mxCell id="yukqBfJGvnLZqiaPEwCo-81" style="edgeStyle=orthogonalEdgeStyle;rounded=0;orthogonalLoop=1;jettySize=auto;html=1;exitX=1;exitY=0.5;exitDx=0;exitDy=0;entryX=0;entryY=0.5;entryDx=0;entryDy=0;endArrow=none;startFill=0;" parent="1" source="yukqBfJGvnLZqiaPEwCo-82" target="yukqBfJGvnLZqiaPEwCo-83" edge="1">
          <mxGeometry relative="1" as="geometry" />
        </mxCell>
        <mxCell id="fCOX_nbEypZg6_mmMfVf-18" value="REST" style="edgeLabel;html=1;align=center;verticalAlign=middle;resizable=0;points=[];" parent="yukqBfJGvnLZqiaPEwCo-81" vertex="1" connectable="0">
          <mxGeometry x="0.0076" y="1" relative="1" as="geometry">
            <mxPoint as="offset" />
          </mxGeometry>
        </mxCell>
        <mxCell id="yukqBfJGvnLZqiaPEwCo-82" value="Frontend / UI" style="rounded=0;whiteSpace=wrap;html=1;fillColor=light-dark(#a4e8f9, #1d293b);strokeColor=#6c8ebf;" parent="1" vertex="1">
          <mxGeometry x="199.84" y="-663.72" width="130" height="40" as="geometry" />
        </mxCell>
        <mxCell id="yukqBfJGvnLZqiaPEwCo-83" value="" style="rounded=0;whiteSpace=wrap;html=1;" parent="1" vertex="1">
          <mxGeometry x="379.17999999999995" y="-777.5" width="10" height="267.5" as="geometry" />
        </mxCell>
        <mxCell id="yukqBfJGvnLZqiaPEwCo-84" value="" style="endArrow=none;html=1;rounded=0;exitX=1;exitY=0.5;exitDx=0;exitDy=0;entryX=0;entryY=0.5;entryDx=0;entryDy=0;startFill=0;" parent="1" source="yukqBfJGvnLZqiaPEwCo-74" target="yukqBfJGvnLZqiaPEwCo-82" edge="1">
          <mxGeometry width="50" height="50" relative="1" as="geometry">
            <mxPoint x="169.18" y="-567.5" as="sourcePoint" />
            <mxPoint x="219.18000000000004" y="-617.5" as="targetPoint" />
          </mxGeometry>
        </mxCell>
        <mxCell id="fCOX_nbEypZg6_mmMfVf-17" value="HTTPS" style="edgeLabel;html=1;align=center;verticalAlign=middle;resizable=0;points=[];" parent="yukqBfJGvnLZqiaPEwCo-84" vertex="1" connectable="0">
          <mxGeometry x="-0.0035" y="2" relative="1" as="geometry">
            <mxPoint as="offset" />
          </mxGeometry>
        </mxCell>
        <mxCell id="yukqBfJGvnLZqiaPEwCo-85" style="edgeStyle=orthogonalEdgeStyle;rounded=0;orthogonalLoop=1;jettySize=auto;html=1;exitX=1.04;exitY=0.071;exitDx=0;exitDy=0;entryX=0;entryY=0.5;entryDx=0;entryDy=0;exitPerimeter=0;endArrow=none;startFill=0;" parent="1" source="yukqBfJGvnLZqiaPEwCo-83" target="yukqBfJGvnLZqiaPEwCo-75" edge="1">
          <mxGeometry relative="1" as="geometry">
            <mxPoint x="389.17999999999995" y="-757.7" as="sourcePoint" />
            <mxPoint x="439.17999999999995" y="-757.7" as="targetPoint" />
            <Array as="points">
              <mxPoint x="409.17999999999995" y="-757.5" />
            </Array>
          </mxGeometry>
        </mxCell>
        <mxCell id="fCOX_nbEypZg6_mmMfVf-19" value="REST" style="edgeLabel;html=1;align=center;verticalAlign=middle;resizable=0;points=[];" parent="yukqBfJGvnLZqiaPEwCo-85" vertex="1" connectable="0">
          <mxGeometry x="-0.1903" y="1" relative="1" as="geometry">
            <mxPoint as="offset" />
          </mxGeometry>
        </mxCell>
        <mxCell id="yukqBfJGvnLZqiaPEwCo-86" style="edgeStyle=orthogonalEdgeStyle;rounded=0;orthogonalLoop=1;jettySize=auto;html=1;exitX=0.999;exitY=0.287;exitDx=0;exitDy=0;entryX=0;entryY=0.5;entryDx=0;entryDy=0;exitPerimeter=0;endArrow=none;startFill=0;" parent="1" source="yukqBfJGvnLZqiaPEwCo-83" target="yukqBfJGvnLZqiaPEwCo-76" edge="1">
          <mxGeometry relative="1" as="geometry">
            <mxPoint x="399.17999999999995" y="-747.5" as="sourcePoint" />
            <mxPoint x="449.18000000000006" y="-747.5" as="targetPoint" />
            <Array as="points">
              <mxPoint x="419.17999999999995" y="-697.5" />
            </Array>
          </mxGeometry>
        </mxCell>
        <mxCell id="fCOX_nbEypZg6_mmMfVf-20" value="REST" style="edgeLabel;html=1;align=center;verticalAlign=middle;resizable=0;points=[];" parent="yukqBfJGvnLZqiaPEwCo-86" vertex="1" connectable="0">
          <mxGeometry x="-0.2746" relative="1" as="geometry">
            <mxPoint as="offset" />
          </mxGeometry>
        </mxCell>
        <mxCell id="yukqBfJGvnLZqiaPEwCo-87" style="edgeStyle=orthogonalEdgeStyle;rounded=0;orthogonalLoop=1;jettySize=auto;html=1;exitX=1;exitY=0.5;exitDx=0;exitDy=0;entryX=0;entryY=0.5;entryDx=0;entryDy=0;endArrow=none;startFill=0;" parent="1" source="yukqBfJGvnLZqiaPEwCo-83" target="yukqBfJGvnLZqiaPEwCo-78" edge="1">
          <mxGeometry relative="1" as="geometry">
            <mxPoint x="388.17999999999995" y="-637.64" as="sourcePoint" />
            <mxPoint x="438.17999999999995" y="-637.64" as="targetPoint" />
            <Array as="points" />
          </mxGeometry>
        </mxCell>
        <mxCell id="fCOX_nbEypZg6_mmMfVf-21" value="REST" style="edgeLabel;html=1;align=center;verticalAlign=middle;resizable=0;points=[];" parent="yukqBfJGvnLZqiaPEwCo-87" vertex="1" connectable="0">
          <mxGeometry x="-0.0865" y="-1" relative="1" as="geometry">
            <mxPoint as="offset" />
          </mxGeometry>
        </mxCell>
        <mxCell id="yukqBfJGvnLZqiaPEwCo-88" value="REST / FastAPI" style="edgeStyle=orthogonalEdgeStyle;rounded=0;orthogonalLoop=1;jettySize=auto;html=1;entryX=0;entryY=0.5;entryDx=0;entryDy=0;endArrow=none;startFill=0;" parent="1" target="yukqBfJGvnLZqiaPEwCo-79" edge="1">
          <mxGeometry x="-0.1657" y="10" relative="1" as="geometry">
            <mxPoint x="388.84000000000003" y="-550" as="sourcePoint" />
            <mxPoint x="429.17999999999995" y="-577.64" as="targetPoint" />
            <Array as="points">
              <mxPoint x="388.84000000000003" y="-550" />
            </Array>
            <mxPoint as="offset" />
          </mxGeometry>
        </mxCell>
        <mxCell id="yukqBfJGvnLZqiaPEwCo-90" value="" style="endArrow=classic;html=1;rounded=0;dashed=1;exitX=0.5;exitY=1;exitDx=0;exitDy=0;entryX=0.5;entryY=0;entryDx=0;entryDy=0;" parent="1" source="yukqBfJGvnLZqiaPEwCo-75" target="yukqBfJGvnLZqiaPEwCo-76" edge="1">
          <mxGeometry width="50" height="50" relative="1" as="geometry">
            <mxPoint x="479.18000000000006" y="-647.5" as="sourcePoint" />
            <mxPoint x="529.1800000000001" y="-697.5" as="targetPoint" />
          </mxGeometry>
        </mxCell>
        <mxCell id="fCOX_nbEypZg6_mmMfVf-25" value="&lt;font style=&quot;font-size: 9px;&quot;&gt;Load User Context&lt;/font&gt;" style="edgeLabel;html=1;align=center;verticalAlign=middle;resizable=0;points=[];" parent="yukqBfJGvnLZqiaPEwCo-90" vertex="1" connectable="0">
          <mxGeometry x="-0.2314" y="-1" relative="1" as="geometry">
            <mxPoint x="47" y="2" as="offset" />
          </mxGeometry>
        </mxCell>
        <mxCell id="yukqBfJGvnLZqiaPEwCo-91" value="&lt;font size=&quot;1&quot;&gt;Course Information&lt;/font&gt;" style="endArrow=classic;html=1;rounded=0;dashed=1;exitX=0.5;exitY=1;exitDx=0;exitDy=0;entryX=0.5;entryY=0;entryDx=0;entryDy=0;" parent="1" source="yukqBfJGvnLZqiaPEwCo-76" target="yukqBfJGvnLZqiaPEwCo-78" edge="1">
          <mxGeometry x="-0.2381" y="46" width="50" height="50" relative="1" as="geometry">
            <mxPoint x="514.1800000000001" y="-727.5" as="sourcePoint" />
            <mxPoint x="514.1800000000001" y="-707.5" as="targetPoint" />
            <mxPoint as="offset" />
          </mxGeometry>
        </mxCell>
        <mxCell id="yukqBfJGvnLZqiaPEwCo-92" value="" style="endArrow=none;html=1;rounded=0;dashed=1;exitX=0.5;exitY=1;exitDx=0;exitDy=0;entryX=0.5;entryY=0;entryDx=0;entryDy=0;startArrow=classic;startFill=1;endFill=0;" parent="1" source="yukqBfJGvnLZqiaPEwCo-78" target="yukqBfJGvnLZqiaPEwCo-79" edge="1">
          <mxGeometry width="50" height="50" relative="1" as="geometry">
            <mxPoint x="524.1800000000001" y="-717.5" as="sourcePoint" />
            <mxPoint x="524.1800000000001" y="-697.5" as="targetPoint" />
          </mxGeometry>
        </mxCell>
        <mxCell id="fCOX_nbEypZg6_mmMfVf-27" value="&lt;font style=&quot;font-size: 9px;&quot;&gt;Summary Request&lt;/font&gt;" style="edgeLabel;html=1;align=center;verticalAlign=middle;resizable=0;points=[];" parent="yukqBfJGvnLZqiaPEwCo-92" vertex="1" connectable="0">
          <mxGeometry x="0.0059" y="-2" relative="1" as="geometry">
            <mxPoint x="128" y="3" as="offset" />
          </mxGeometry>
        </mxCell>
        <mxCell id="yukqBfJGvnLZqiaPEwCo-94" style="edgeStyle=orthogonalEdgeStyle;rounded=0;orthogonalLoop=1;jettySize=auto;html=1;exitX=1;exitY=0.5;exitDx=0;exitDy=0;startArrow=none;startFill=0;entryX=-0.005;entryY=0.526;entryDx=0;entryDy=0;entryPerimeter=0;endArrow=none;" parent="1" source="yukqBfJGvnLZqiaPEwCo-75" target="yukqBfJGvnLZqiaPEwCo-101" edge="1">
          <mxGeometry relative="1" as="geometry">
            <mxPoint x="629.1800000000001" y="-727.5" as="sourcePoint" />
            <mxPoint x="649.1800000000001" y="-757.5" as="targetPoint" />
          </mxGeometry>
        </mxCell>
        <mxCell id="yukqBfJGvnLZqiaPEwCo-95" style="edgeStyle=orthogonalEdgeStyle;rounded=0;orthogonalLoop=1;jettySize=auto;html=1;exitX=1;exitY=0.5;exitDx=0;exitDy=0;startArrow=none;startFill=0;endArrow=none;" parent="1" source="yukqBfJGvnLZqiaPEwCo-78" edge="1">
          <mxGeometry relative="1" as="geometry">
            <mxPoint x="579.1800000000001" y="-687.5" as="sourcePoint" />
            <mxPoint x="689.1800000000001" y="-697.5" as="targetPoint" />
            <Array as="points">
              <mxPoint x="629.1800000000001" y="-637.5" />
              <mxPoint x="629.1800000000001" y="-697.5" />
            </Array>
          </mxGeometry>
        </mxCell>
        <mxCell id="yukqBfJGvnLZqiaPEwCo-97" value="" style="endArrow=classic;html=1;rounded=0;dashed=1;exitX=1;exitY=0.75;exitDx=0;exitDy=0;entryX=1;entryY=0.25;entryDx=0;entryDy=0;" parent="1" source="yukqBfJGvnLZqiaPEwCo-76" target="yukqBfJGvnLZqiaPEwCo-79" edge="1">
          <mxGeometry width="50" height="50" relative="1" as="geometry">
            <mxPoint x="514.1800000000001" y="-667.5" as="sourcePoint" />
            <mxPoint x="514.1800000000001" y="-647.5" as="targetPoint" />
            <Array as="points">
              <mxPoint x="589.1800000000001" y="-687.5" />
              <mxPoint x="589.1800000000001" y="-637.5" />
              <mxPoint x="588.84" y="-560" />
            </Array>
          </mxGeometry>
        </mxCell>
        <mxCell id="yukqBfJGvnLZqiaPEwCo-100" value="API Gateway" style="text;strokeColor=none;align=center;fillColor=none;html=1;verticalAlign=middle;whiteSpace=wrap;rounded=0;fontStyle=1" parent="1" vertex="1">
          <mxGeometry x="341.35" y="-817.5" width="85.66" height="30" as="geometry" />
        </mxCell>
        <mxCell id="yukqBfJGvnLZqiaPEwCo-101" value="User Data,&amp;nbsp;&lt;div&gt;Files,&amp;nbsp;&lt;/div&gt;&lt;div&gt;Content&lt;/div&gt;" style="shape=cylinder3;whiteSpace=wrap;html=1;boundedLbl=1;backgroundOutline=1;size=15;" parent="1" vertex="1">
          <mxGeometry x="689.1800000000001" y="-767.5" width="100" height="135" as="geometry" />
        </mxCell>
        <mxCell id="yukqBfJGvnLZqiaPEwCo-102" value="" style="shape=image;verticalLabelPosition=bottom;labelBackgroundColor=default;verticalAlign=top;aspect=fixed;imageAspect=0;image=https://www.postgresql.org/media/img/about/press/elephant.png;" parent="1" vertex="1">
          <mxGeometry x="756.6800000000001" y="-777.5" width="48.47" height="50" as="geometry" />
        </mxCell>
        <mxCell id="yukqBfJGvnLZqiaPEwCo-104" style="edgeStyle=orthogonalEdgeStyle;rounded=0;orthogonalLoop=1;jettySize=auto;html=1;startArrow=none;startFill=0;endArrow=none;entryX=0.002;entryY=0.523;entryDx=0;entryDy=0;entryPerimeter=0;" parent="1" source="yukqBfJGvnLZqiaPEwCo-76" target="yukqBfJGvnLZqiaPEwCo-101" edge="1">
          <mxGeometry relative="1" as="geometry">
            <mxPoint x="579.1800000000001" y="-747.5" as="sourcePoint" />
            <mxPoint x="688.1800000000001" y="-694.5" as="targetPoint" />
            <Array as="points" />
          </mxGeometry>
        </mxCell>
        <mxCell id="fCOX_nbEypZg6_mmMfVf-22" value="JDBC" style="edgeLabel;html=1;align=center;verticalAlign=middle;resizable=0;points=[];" parent="yukqBfJGvnLZqiaPEwCo-104" vertex="1" connectable="0">
          <mxGeometry x="0.3911" y="-1" relative="1" as="geometry">
            <mxPoint as="offset" />
          </mxGeometry>
        </mxCell>
        <mxCell id="yukqBfJGvnLZqiaPEwCo-105" value="&lt;span style=&quot;text-align: start; caret-color: rgb(0, 0, 0); color: light-dark(rgb(0, 0, 0), rgb(255, 255, 255));&quot;&gt;&lt;font&gt;&lt;b&gt;Subsystem Decomposition&lt;/b&gt;&lt;/font&gt;&lt;/span&gt;" style="text;strokeColor=none;align=center;fillColor=none;html=1;verticalAlign=middle;whiteSpace=wrap;rounded=0;fontStyle=0;fontSize=24;" parent="1" vertex="1">
          <mxGeometry x="1665.37" y="260" width="356.25" height="30" as="geometry" />
        </mxCell>
        <mxCell id="oLULSBj5ggAeRswvWHEc-1" value="&lt;span style=&quot;text-align: start; caret-color: rgb(0, 0, 0); color: light-dark(rgb(0, 0, 0), rgb(255, 255, 255));&quot;&gt;Use Case Diagram&lt;/span&gt;" style="text;strokeColor=none;align=center;fillColor=none;html=1;verticalAlign=middle;whiteSpace=wrap;rounded=0;fontStyle=1;fontSize=24;" parent="1" vertex="1">
          <mxGeometry x="1670" y="-1097.5" width="282.5" height="30" as="geometry" />
        </mxCell>
        <mxCell id="oLULSBj5ggAeRswvWHEc-2" value="Student&lt;div&gt;&lt;br&gt;&lt;/div&gt;" style="shape=umlActor;verticalLabelPosition=bottom;verticalAlign=top;html=1;outlineConnect=0;" parent="1" vertex="1">
          <mxGeometry x="1680" y="-767.11" width="62.5" height="102.5" as="geometry" />
        </mxCell>
        <mxCell id="oLULSBj5ggAeRswvWHEc-5" value="" style="whiteSpace=wrap;html=1;" parent="1" vertex="1">
          <mxGeometry x="1830" y="-1042.11" width="640" height="595" as="geometry" />
        </mxCell>
        <mxCell id="oLULSBj5ggAeRswvWHEc-7" value="&lt;font style=&quot;font-size: 18px;&quot;&gt;ReleaseRanger Team Project&lt;/font&gt;" style="text;html=1;align=center;verticalAlign=middle;resizable=0;points=[];autosize=1;strokeColor=none;fillColor=none;" parent="1" vertex="1">
          <mxGeometry x="2104" y="-1036.11" width="260" height="40" as="geometry" />
        </mxCell>
        <mxCell id="oLULSBj5ggAeRswvWHEc-8" value="Sign Up" style="ellipse;whiteSpace=wrap;html=1;" parent="1" vertex="1">
          <mxGeometry x="1860" y="-987.11" width="120" height="60" as="geometry" />
        </mxCell>
        <mxCell id="oLULSBj5ggAeRswvWHEc-9" value="Create Course" style="ellipse;whiteSpace=wrap;html=1;" parent="1" vertex="1">
          <mxGeometry x="1860" y="-834.61" width="120" height="60" as="geometry" />
        </mxCell>
        <mxCell id="oLULSBj5ggAeRswvWHEc-10" value="Select Material to Upload&lt;span style=&quot;color: rgba(0, 0, 0, 0); font-family: monospace; font-size: 0px; text-align: start; text-wrap-mode: nowrap;&quot;&gt;%3CmxGraphModel%3E%3Croot%3E%3CmxCell%20id%3D%220%22%2F%3E%3CmxCell%20id%3D%221%22%20parent%3D%220%22%2F%3E%3CmxCell%20id%3D%222%22%20value%3D%22Create%20Profile%22%20style%3D%22ellipse%3BwhiteSpace%3Dwrap%3Bhtml%3D1%3B%22%20vertex%3D%221%22%20parent%3D%221%22%3E%3CmxGeometry%20x%3D%221150%22%20y%3D%22-830%22%20width%3D%22120%22%20height%3D%2260%22%20as%3D%22geometry%22%2F%3E%3C%2FmxCell%3E%3C%2Froot%3E%3C%2FmxGraphModel%3E&lt;/span&gt;&lt;span style=&quot;color: rgba(0, 0, 0, 0); font-family: monospace; font-size: 0px; text-align: start; text-wrap-mode: nowrap;&quot;&gt;%3CmxGraphModel%3E%3Croot%3E%3CmxCell%20id%3D%220%22%2F%3E%3CmxCell%20id%3D%221%22%20parent%3D%220%22%2F%3E%3CmxCell%20id%3D%222%22%20value%3D%22Create%20Profile%22%20style%3D%22ellipse%3BwhiteSpace%3Dwrap%3Bhtml%3D1%3B%22%20vertex%3D%221%22%20parent%3D%221%22%3E%3CmxGeometry%20x%3D%221150%22%20y%3D%22-830%22%20width%3D%22120%22%20height%3D%2260%22%20as%3D%22geometry%22%2F%3E%3C%2FmxCell%3E%3C%2Froot%3E%3C%2FmxGraphModel%3E&lt;/span&gt;" style="ellipse;whiteSpace=wrap;html=1;" parent="1" vertex="1">
          <mxGeometry x="1860" y="-751.61" width="120" height="60" as="geometry" />
        </mxCell>
        <mxCell id="oLULSBj5ggAeRswvWHEc-11" value="View Summaries&lt;span style=&quot;color: rgba(0, 0, 0, 0); font-family: monospace; font-size: 0px; text-align: start; text-wrap-mode: nowrap;&quot;&gt;%3CmxGraphModel%3E%3Croot%3E%3CmxCell%20id%3D%220%22%2F%3E%3CmxCell%20id%3D%221%22%20parent%3D%220%22%2F%3E%3CmxCell%20id%3D%222%22%20value%3D%22Upload%20Material%26lt%3Bspan%20style%3D%26quot%3Bcolor%3A%20rgba(0%2C%200%2C%200%2C%200)%3B%20font-family%3A%20monospace%3B%20font-size%3A%200px%3B%20text-align%3A%20start%3B%20text-wrap-mode%3A%20nowrap%3B%26quot%3B%26gt%3B%253CmxGraphModel%253E%253Croot%253E%253CmxCell%2520id%253D%25220%2522%252F%253E%253CmxCell%2520id%253D%25221%2522%2520parent%253D%25220%2522%252F%253E%253CmxCell%2520id%253D%25222%2522%2520value%253D%2522Create%2520Profile%2522%2520style%253D%2522ellipse%253BwhiteSpace%253Dwrap%253Bhtml%253D1%253B%2522%2520vertex%253D%25221%2522%2520parent%253D%25221%2522%253E%253CmxGeometry%2520x%253D%25221150%2522%2520y%253D%2522-830%2522%2520width%253D%2522120%2522%2520height%253D%252260%2522%2520as%253D%2522geometry%2522%252F%253E%253C%252FmxCell%253E%253C%252Froot%253E%253C%252FmxGraphModel%253E%26lt%3B%2Fspan%26gt%3B%26lt%3Bspan%20style%3D%26quot%3Bcolor%3A%20rgba(0%2C%200%2C%200%2C%200)%3B%20font-family%3A%20monospace%3B%20font-size%3A%200px%3B%20text-align%3A%20start%3B%20text-wrap-mode%3A%20nowrap%3B%26quot%3B%26gt%3B%253CmxGraphModel%253E%253Croot%253E%253CmxCell%2520id%253D%25220%2522%252F%253E%253CmxCell%2520id%253D%25221%2522%2520parent%253D%25220%2522%252F%253E%253CmxCell%2520id%253D%25222%2522%2520value%253D%2522Create%2520Profile%2522%2520style%253D%2522ellipse%253BwhiteSpace%253Dwrap%253Bhtml%253D1%253B%2522%2520vertex%253D%25221%2522%2520parent%253D%25221%2522%253E%253CmxGeometry%2520x%253D%25221150%2522%2520y%253D%2522-830%2522%2520width%253D%2522120%2522%2520height%253D%252260%2522%2520as%253D%2522geometry%2522%252F%253E%253C%252FmxCell%253E%253C%252Froot%253E%253C%252FmxGraphModel%253E%26lt%3B%2Fspan%26gt%3B%22%20style%3D%22ellipse%3BwhiteSpace%3Dwrap%3Bhtml%3D1%3B%22%20vertex%3D%221%22%20parent%3D%221%22%3E%3CmxGeometry%20x%3D%221150%22%20y%3D%22-680%22%20width%3D%22120%22%20height%3D%2260%22%20as%3D%22geometry%22%2F%3E%3C%2FmxCell%3E%3C%2Froot%3E%3C%2FmxGraphModel%3&lt;/span&gt;" style="ellipse;whiteSpace=wrap;html=1;" parent="1" vertex="1">
          <mxGeometry x="1860" y="-677.11" width="120" height="60" as="geometry" />
        </mxCell>
        <mxCell id="oLULSBj5ggAeRswvWHEc-12" value="Request Summary" style="ellipse;whiteSpace=wrap;html=1;" parent="1" vertex="1">
          <mxGeometry x="2010" y="-705" width="120" height="60" as="geometry" />
        </mxCell>
        <mxCell id="oLULSBj5ggAeRswvWHEc-14" value="Save User" style="ellipse;whiteSpace=wrap;html=1;" parent="1" vertex="1">
          <mxGeometry x="2090" y="-987.11" width="120" height="60" as="geometry" />
        </mxCell>
        <mxCell id="oLULSBj5ggAeRswvWHEc-15" value="Login" style="ellipse;whiteSpace=wrap;html=1;" parent="1" vertex="1">
          <mxGeometry x="1860" y="-914.61" width="120" height="60" as="geometry" />
        </mxCell>
        <mxCell id="oLULSBj5ggAeRswvWHEc-16" value="Authenticate User" style="ellipse;whiteSpace=wrap;html=1;" parent="1" vertex="1">
          <mxGeometry x="2090" y="-914.61" width="120" height="60" as="geometry" />
        </mxCell>
        <mxCell id="oLULSBj5ggAeRswvWHEc-17" value="Save Course to DB" style="ellipse;whiteSpace=wrap;html=1;" parent="1" vertex="1">
          <mxGeometry x="2090" y="-834.61" width="120" height="60" as="geometry" />
        </mxCell>
        <mxCell id="oLULSBj5ggAeRswvWHEc-18" value="Trigger GenAI Workflow" style="ellipse;whiteSpace=wrap;html=1;" parent="1" vertex="1">
          <mxGeometry x="2160" y="-751.61" width="120" height="60" as="geometry" />
        </mxCell>
        <mxCell id="oLULSBj5ggAeRswvWHEc-20" value="" style="endArrow=classic;html=1;rounded=0;exitX=1;exitY=0.3333333333333333;exitDx=0;exitDy=0;exitPerimeter=0;entryX=0;entryY=0.5;entryDx=0;entryDy=0;endFill=1;" parent="1" source="oLULSBj5ggAeRswvWHEc-2" target="oLULSBj5ggAeRswvWHEc-8" edge="1">
          <mxGeometry width="50" height="50" relative="1" as="geometry">
            <mxPoint x="2010" y="-747.11" as="sourcePoint" />
            <mxPoint x="2060" y="-797.11" as="targetPoint" />
          </mxGeometry>
        </mxCell>
        <mxCell id="oLULSBj5ggAeRswvWHEc-21" value="" style="endArrow=classic;html=1;rounded=0;exitX=1;exitY=0.3333333333333333;exitDx=0;exitDy=0;exitPerimeter=0;entryX=0;entryY=0.5;entryDx=0;entryDy=0;endFill=1;" parent="1" source="oLULSBj5ggAeRswvWHEc-2" target="oLULSBj5ggAeRswvWHEc-15" edge="1">
          <mxGeometry width="50" height="50" relative="1" as="geometry">
            <mxPoint x="1770" y="-837.11" as="sourcePoint" />
            <mxPoint x="1870" y="-956.11" as="targetPoint" />
          </mxGeometry>
        </mxCell>
        <mxCell id="oLULSBj5ggAeRswvWHEc-22" value="" style="endArrow=classic;html=1;rounded=0;exitX=1;exitY=0.3333333333333333;exitDx=0;exitDy=0;exitPerimeter=0;entryX=0;entryY=0.5;entryDx=0;entryDy=0;endFill=1;" parent="1" source="oLULSBj5ggAeRswvWHEc-2" target="oLULSBj5ggAeRswvWHEc-9" edge="1">
          <mxGeometry width="50" height="50" relative="1" as="geometry">
            <mxPoint x="1780" y="-827.11" as="sourcePoint" />
            <mxPoint x="1880" y="-946.11" as="targetPoint" />
          </mxGeometry>
        </mxCell>
        <mxCell id="oLULSBj5ggAeRswvWHEc-23" value="" style="endArrow=classic;html=1;rounded=0;exitX=1;exitY=0.3333333333333333;exitDx=0;exitDy=0;exitPerimeter=0;entryX=0;entryY=0.5;entryDx=0;entryDy=0;endFill=1;" parent="1" source="oLULSBj5ggAeRswvWHEc-2" target="oLULSBj5ggAeRswvWHEc-10" edge="1">
          <mxGeometry width="50" height="50" relative="1" as="geometry">
            <mxPoint x="1790" y="-817.11" as="sourcePoint" />
            <mxPoint x="1890" y="-936.11" as="targetPoint" />
          </mxGeometry>
        </mxCell>
        <mxCell id="oLULSBj5ggAeRswvWHEc-25" value="" style="endArrow=classic;html=1;rounded=0;exitX=1;exitY=0.3333333333333333;exitDx=0;exitDy=0;exitPerimeter=0;entryX=0;entryY=0.5;entryDx=0;entryDy=0;endFill=1;" parent="1" source="oLULSBj5ggAeRswvWHEc-2" target="oLULSBj5ggAeRswvWHEc-11" edge="1">
          <mxGeometry width="50" height="50" relative="1" as="geometry">
            <mxPoint x="1810" y="-797.11" as="sourcePoint" />
            <mxPoint x="1910" y="-916.11" as="targetPoint" />
          </mxGeometry>
        </mxCell>
        <mxCell id="oLULSBj5ggAeRswvWHEc-26" value="" style="endArrow=none;html=1;rounded=0;exitX=1;exitY=0.5;exitDx=0;exitDy=0;entryX=0;entryY=0.5;entryDx=0;entryDy=0;" parent="1" source="oLULSBj5ggAeRswvWHEc-8" target="oLULSBj5ggAeRswvWHEc-14" edge="1">
          <mxGeometry width="50" height="50" relative="1" as="geometry">
            <mxPoint x="2010" y="-747.11" as="sourcePoint" />
            <mxPoint x="2060" y="-797.11" as="targetPoint" />
          </mxGeometry>
        </mxCell>
        <mxCell id="oLULSBj5ggAeRswvWHEc-32" value="&amp;lt;&amp;lt; includes &amp;gt;&amp;gt;" style="edgeLabel;html=1;align=center;verticalAlign=middle;resizable=0;points=[];" parent="oLULSBj5ggAeRswvWHEc-26" vertex="1" connectable="0">
          <mxGeometry x="-0.1127" relative="1" as="geometry">
            <mxPoint as="offset" />
          </mxGeometry>
        </mxCell>
        <mxCell id="oLULSBj5ggAeRswvWHEc-27" value="" style="endArrow=none;html=1;rounded=0;exitX=1;exitY=0.5;exitDx=0;exitDy=0;entryX=0;entryY=0.5;entryDx=0;entryDy=0;" parent="1" source="oLULSBj5ggAeRswvWHEc-15" target="oLULSBj5ggAeRswvWHEc-16" edge="1">
          <mxGeometry width="50" height="50" relative="1" as="geometry">
            <mxPoint x="1990" y="-956.11" as="sourcePoint" />
            <mxPoint x="2100" y="-957.11" as="targetPoint" />
          </mxGeometry>
        </mxCell>
        <mxCell id="oLULSBj5ggAeRswvWHEc-33" value="&amp;lt;&amp;lt; includes &amp;gt;&amp;gt;" style="edgeLabel;html=1;align=center;verticalAlign=middle;resizable=0;points=[];" parent="oLULSBj5ggAeRswvWHEc-27" vertex="1" connectable="0">
          <mxGeometry x="-0.0109" y="1" relative="1" as="geometry">
            <mxPoint as="offset" />
          </mxGeometry>
        </mxCell>
        <mxCell id="oLULSBj5ggAeRswvWHEc-28" value="" style="endArrow=none;html=1;rounded=0;exitX=1;exitY=0.5;exitDx=0;exitDy=0;entryX=0;entryY=0.5;entryDx=0;entryDy=0;" parent="1" source="oLULSBj5ggAeRswvWHEc-9" target="oLULSBj5ggAeRswvWHEc-17" edge="1">
          <mxGeometry width="50" height="50" relative="1" as="geometry">
            <mxPoint x="1990" y="-884.11" as="sourcePoint" />
            <mxPoint x="2100" y="-884.11" as="targetPoint" />
          </mxGeometry>
        </mxCell>
        <mxCell id="oLULSBj5ggAeRswvWHEc-34" value="&amp;lt;&amp;lt; includes &amp;gt;&amp;gt;" style="edgeLabel;html=1;align=center;verticalAlign=middle;resizable=0;points=[];" parent="oLULSBj5ggAeRswvWHEc-28" vertex="1" connectable="0">
          <mxGeometry x="0.1055" y="1" relative="1" as="geometry">
            <mxPoint y="1" as="offset" />
          </mxGeometry>
        </mxCell>
        <mxCell id="oLULSBj5ggAeRswvWHEc-29" value="" style="endArrow=none;html=1;rounded=0;exitX=1;exitY=0.5;exitDx=0;exitDy=0;entryX=0;entryY=0.5;entryDx=0;entryDy=0;" parent="1" source="oLULSBj5ggAeRswvWHEc-12" target="oLULSBj5ggAeRswvWHEc-18" edge="1">
          <mxGeometry width="50" height="50" relative="1" as="geometry">
            <mxPoint x="1990" y="-809.11" as="sourcePoint" />
            <mxPoint x="2100" y="-809.11" as="targetPoint" />
          </mxGeometry>
        </mxCell>
        <mxCell id="oLULSBj5ggAeRswvWHEc-35" value="&amp;lt;&amp;lt; includes &amp;gt;&amp;gt;" style="edgeLabel;html=1;align=center;verticalAlign=middle;resizable=0;points=[];" parent="oLULSBj5ggAeRswvWHEc-29" vertex="1" connectable="0">
          <mxGeometry x="-0.0576" y="-3" relative="1" as="geometry">
            <mxPoint as="offset" />
          </mxGeometry>
        </mxCell>
        <mxCell id="oLULSBj5ggAeRswvWHEc-31" value="&lt;blockquote style=&quot;margin: 0 0 0 40px; border: none; padding: 0px;&quot;&gt;&amp;lt;&amp;lt; extends &amp;gt;&amp;gt;&lt;/blockquote&gt;" style="endArrow=none;html=1;rounded=0;exitX=1;exitY=0.5;exitDx=0;exitDy=0;entryX=0;entryY=0.5;entryDx=0;entryDy=0;" parent="1" source="oLULSBj5ggAeRswvWHEc-10" target="oLULSBj5ggAeRswvWHEc-12" edge="1">
          <mxGeometry width="50" height="50" relative="1" as="geometry">
            <mxPoint x="2130" y="-677.11" as="sourcePoint" />
            <mxPoint x="2170" y="-727.11" as="targetPoint" />
          </mxGeometry>
        </mxCell>
        <mxCell id="fCOX_nbEypZg6_mmMfVf-4" style="rounded=0;orthogonalLoop=1;jettySize=auto;html=1;exitX=1;exitY=0.5;exitDx=0;exitDy=0;entryX=0;entryY=0.5;entryDx=0;entryDy=0;dashed=1;dashPattern=8 8;" parent="1" source="oLULSBj5ggAeRswvWHEc-18" target="fCOX_nbEypZg6_mmMfVf-1" edge="1">
          <mxGeometry relative="1" as="geometry" />
        </mxCell>
        <mxCell id="fCOX_nbEypZg6_mmMfVf-8" value="&amp;lt;&amp;lt; extends &amp;gt;&amp;gt;" style="edgeLabel;html=1;align=center;verticalAlign=middle;resizable=0;points=[];" parent="fCOX_nbEypZg6_mmMfVf-4" vertex="1" connectable="0">
          <mxGeometry x="-0.0346" relative="1" as="geometry">
            <mxPoint as="offset" />
          </mxGeometry>
        </mxCell>
        <mxCell id="fCOX_nbEypZg6_mmMfVf-5" style="rounded=0;orthogonalLoop=1;jettySize=auto;html=1;exitX=1;exitY=0.5;exitDx=0;exitDy=0;entryX=0;entryY=0.5;entryDx=0;entryDy=0;dashed=1;dashPattern=8 8;" parent="1" source="oLULSBj5ggAeRswvWHEc-18" target="fCOX_nbEypZg6_mmMfVf-2" edge="1">
          <mxGeometry relative="1" as="geometry" />
        </mxCell>
        <mxCell id="fCOX_nbEypZg6_mmMfVf-9" value="&amp;lt;&amp;lt; extends &amp;gt;&amp;gt;" style="edgeLabel;html=1;align=center;verticalAlign=middle;resizable=0;points=[];" parent="fCOX_nbEypZg6_mmMfVf-5" vertex="1" connectable="0">
          <mxGeometry x="0.101" y="-3" relative="1" as="geometry">
            <mxPoint as="offset" />
          </mxGeometry>
        </mxCell>
        <mxCell id="64x59cSJdGSDIxU7Kyna-1" value="&lt;div&gt;Analysis Object Model&lt;/div&gt;" style="text;strokeColor=none;align=center;fillColor=none;html=1;verticalAlign=middle;whiteSpace=wrap;rounded=0;fontStyle=1;fontSize=24;" parent="1" vertex="1">
          <mxGeometry x="10.000000000000014" y="40" width="282.5" height="30" as="geometry" />
        </mxCell>
        <mxCell id="64x59cSJdGSDIxU7Kyna-2" value="Course" style="swimlane;fontStyle=1;align=center;verticalAlign=top;childLayout=stackLayout;horizontal=1;startSize=26;horizontalStack=0;resizeParent=1;resizeParentMax=0;resizeLast=0;collapsible=1;marginBottom=0;whiteSpace=wrap;html=1;" parent="1" vertex="1">
          <mxGeometry x="10" y="120" width="290" height="220" as="geometry" />
        </mxCell>
        <mxCell id="64x59cSJdGSDIxU7Kyna-3" value="&lt;div&gt;id&lt;br&gt;&lt;/div&gt;&lt;div&gt;name&lt;/div&gt;&lt;div&gt;description&lt;/div&gt;&lt;div&gt;emoji&lt;/div&gt;&lt;div&gt;isFavorite&lt;br&gt;&lt;div&gt;createdAt&lt;/div&gt;&lt;div&gt;updatedAt&lt;/div&gt;&lt;/div&gt;" style="text;strokeColor=none;fillColor=none;align=left;verticalAlign=top;spacingLeft=4;spacingRight=4;overflow=hidden;rotatable=0;points=[[0,0.5],[1,0.5]];portConstraint=eastwest;whiteSpace=wrap;html=1;" parent="64x59cSJdGSDIxU7Kyna-2" vertex="1">
          <mxGeometry y="26" width="290" height="114" as="geometry" />
        </mxCell>
        <mxCell id="64x59cSJdGSDIxU7Kyna-4" value="" style="line;strokeWidth=1;fillColor=none;align=left;verticalAlign=middle;spacingTop=-1;spacingLeft=3;spacingRight=3;rotatable=0;labelPosition=right;points=[];portConstraint=eastwest;strokeColor=inherit;" parent="64x59cSJdGSDIxU7Kyna-2" vertex="1">
          <mxGeometry y="140" width="290" height="8" as="geometry" />
        </mxCell>
        <mxCell id="64x59cSJdGSDIxU7Kyna-5" value="&lt;div&gt;addChapter(chapter: Chapter): Boolean&lt;br&gt;removeChapter(chapter: Chapter): Boolean&lt;/div&gt;&lt;div&gt;markAsFavorite(): void&lt;br&gt;removeAsFavorite(): void&lt;/div&gt;" style="text;strokeColor=none;fillColor=none;align=left;verticalAlign=top;spacingLeft=4;spacingRight=4;overflow=hidden;rotatable=0;points=[[0,0.5],[1,0.5]];portConstraint=eastwest;whiteSpace=wrap;html=1;" parent="64x59cSJdGSDIxU7Kyna-2" vertex="1">
          <mxGeometry y="148" width="290" height="72" as="geometry" />
        </mxCell>
        <mxCell id="64x59cSJdGSDIxU7Kyna-6" value="Chapter" style="swimlane;fontStyle=1;align=center;verticalAlign=top;childLayout=stackLayout;horizontal=1;startSize=26;horizontalStack=0;resizeParent=1;resizeParentMax=0;resizeLast=0;collapsible=1;marginBottom=0;whiteSpace=wrap;html=1;" parent="1" vertex="1">
          <mxGeometry x="415.67999999999995" y="120" width="329.66" height="210" as="geometry" />
        </mxCell>
        <mxCell id="64x59cSJdGSDIxU7Kyna-12" value="&lt;div&gt;id&lt;/div&gt;&lt;div&gt;name&lt;br&gt;&lt;/div&gt;&lt;div&gt;createdAt&lt;/div&gt;&lt;div&gt;updatedAt&lt;/div&gt;&lt;div&gt;emoji&lt;/div&gt;&lt;div&gt;content&lt;/div&gt;&lt;div&gt;isFavorite&lt;/div&gt;" style="text;strokeColor=none;fillColor=none;align=left;verticalAlign=top;spacingLeft=4;spacingRight=4;overflow=hidden;rotatable=0;points=[[0,0.5],[1,0.5]];portConstraint=eastwest;whiteSpace=wrap;html=1;" parent="64x59cSJdGSDIxU7Kyna-6" vertex="1">
          <mxGeometry y="26" width="329.66" height="104" as="geometry" />
        </mxCell>
        <mxCell id="64x59cSJdGSDIxU7Kyna-8" value="" style="line;strokeWidth=1;fillColor=none;align=left;verticalAlign=middle;spacingTop=-1;spacingLeft=3;spacingRight=3;rotatable=0;labelPosition=right;points=[];portConstraint=eastwest;strokeColor=inherit;" parent="64x59cSJdGSDIxU7Kyna-6" vertex="1">
          <mxGeometry y="130" width="329.66" height="8" as="geometry" />
        </mxCell>
        <mxCell id="64x59cSJdGSDIxU7Kyna-9" value="createChapter(name: String, content: String, emoji: String)&lt;br&gt;markAsFavorite(): void,&lt;br&gt;removeAsFavorite(): void" style="text;strokeColor=none;fillColor=none;align=left;verticalAlign=top;spacingLeft=4;spacingRight=4;overflow=hidden;rotatable=0;points=[[0,0.5],[1,0.5]];portConstraint=eastwest;whiteSpace=wrap;html=1;" parent="64x59cSJdGSDIxU7Kyna-6" vertex="1">
          <mxGeometry y="138" width="329.66" height="72" as="geometry" />
        </mxCell>
        <mxCell id="64x59cSJdGSDIxU7Kyna-10" style="edgeStyle=orthogonalEdgeStyle;rounded=0;orthogonalLoop=1;jettySize=auto;html=1;exitX=0.998;exitY=0.615;exitDx=0;exitDy=0;endArrow=none;endFill=0;startArrow=diamondThin;startFill=1;strokeWidth=3;startSize=20;exitPerimeter=0;" parent="1" source="64x59cSJdGSDIxU7Kyna-3" target="64x59cSJdGSDIxU7Kyna-12" edge="1">
          <mxGeometry relative="1" as="geometry">
            <mxPoint x="430" y="316" as="targetPoint" />
            <Array as="points">
              <mxPoint x="390" y="216" />
              <mxPoint x="390" y="216" />
            </Array>
          </mxGeometry>
        </mxCell>
        <mxCell id="64x59cSJdGSDIxU7Kyna-13" value="0..*" style="edgeLabel;html=1;align=center;verticalAlign=middle;resizable=0;points=[];" parent="64x59cSJdGSDIxU7Kyna-10" vertex="1" connectable="0">
          <mxGeometry x="0.3598" relative="1" as="geometry">
            <mxPoint x="24" y="-16" as="offset" />
          </mxGeometry>
        </mxCell>
        <mxCell id="64x59cSJdGSDIxU7Kyna-23" value="Student" style="swimlane;fontStyle=1;align=center;verticalAlign=top;childLayout=stackLayout;horizontal=1;startSize=26;horizontalStack=0;resizeParent=1;resizeParentMax=0;resizeLast=0;collapsible=1;marginBottom=0;whiteSpace=wrap;html=1;" parent="1" vertex="1">
          <mxGeometry x="10.000000000000114" y="526" width="341.58" height="190" as="geometry" />
        </mxCell>
        <mxCell id="64x59cSJdGSDIxU7Kyna-24" value="&lt;div&gt;id&lt;/div&gt;&lt;div&gt;username&lt;/div&gt;&lt;div&gt;password&lt;/div&gt;&lt;div&gt;email&lt;br&gt;&lt;div&gt;createdAt&lt;/div&gt;&lt;div&gt;updatedAt&lt;/div&gt;&lt;/div&gt;&lt;div&gt;&lt;br&gt;&lt;/div&gt;&lt;div&gt;&lt;br&gt;&lt;br&gt;&lt;/div&gt;" style="text;strokeColor=none;fillColor=none;align=left;verticalAlign=top;spacingLeft=4;spacingRight=4;overflow=hidden;rotatable=0;points=[[0,0.5],[1,0.5]];portConstraint=eastwest;whiteSpace=wrap;html=1;" parent="64x59cSJdGSDIxU7Kyna-23" vertex="1">
          <mxGeometry y="26" width="341.58" height="94" as="geometry" />
        </mxCell>
        <mxCell id="64x59cSJdGSDIxU7Kyna-25" value="" style="line;strokeWidth=1;fillColor=none;align=left;verticalAlign=middle;spacingTop=-1;spacingLeft=3;spacingRight=3;rotatable=0;labelPosition=right;points=[];portConstraint=eastwest;strokeColor=inherit;" parent="64x59cSJdGSDIxU7Kyna-23" vertex="1">
          <mxGeometry y="120" width="341.58" height="8" as="geometry" />
        </mxCell>
        <mxCell id="64x59cSJdGSDIxU7Kyna-26" value="createCourse(name: String): Boolean&lt;br&gt;uploadMaterial(course: Course, files: List&amp;lt;MultiPartFile&amp;gt;)" style="text;strokeColor=none;fillColor=none;align=left;verticalAlign=top;spacingLeft=4;spacingRight=4;overflow=hidden;rotatable=0;points=[[0,0.5],[1,0.5]];portConstraint=eastwest;whiteSpace=wrap;html=1;" parent="64x59cSJdGSDIxU7Kyna-23" vertex="1">
          <mxGeometry y="128" width="341.58" height="62" as="geometry" />
        </mxCell>
        <mxCell id="64x59cSJdGSDIxU7Kyna-28" value="UploadedMaterial" style="swimlane;fontStyle=1;align=center;verticalAlign=top;childLayout=stackLayout;horizontal=1;startSize=26;horizontalStack=0;resizeParent=1;resizeParentMax=0;resizeLast=0;collapsible=1;marginBottom=0;whiteSpace=wrap;html=1;" parent="1" vertex="1">
          <mxGeometry x="509.77000000000004" y="526" width="210" height="200" as="geometry" />
        </mxCell>
        <mxCell id="64x59cSJdGSDIxU7Kyna-29" value="&lt;div&gt;id&lt;/div&gt;&lt;div&gt;fileName&lt;/div&gt;&lt;div&gt;fileType&lt;/div&gt;&lt;div&gt;uploadDate&lt;/div&gt;&lt;div&gt;rawContent&lt;/div&gt;&lt;div&gt;uploadedBy&lt;/div&gt;" style="text;strokeColor=none;fillColor=none;align=left;verticalAlign=top;spacingLeft=4;spacingRight=4;overflow=hidden;rotatable=0;points=[[0,0.5],[1,0.5]];portConstraint=eastwest;whiteSpace=wrap;html=1;" parent="64x59cSJdGSDIxU7Kyna-28" vertex="1">
          <mxGeometry y="26" width="210" height="104" as="geometry" />
        </mxCell>
        <mxCell id="64x59cSJdGSDIxU7Kyna-30" value="" style="line;strokeWidth=1;fillColor=none;align=left;verticalAlign=middle;spacingTop=-1;spacingLeft=3;spacingRight=3;rotatable=0;labelPosition=right;points=[];portConstraint=eastwest;strokeColor=inherit;" parent="64x59cSJdGSDIxU7Kyna-28" vertex="1">
          <mxGeometry y="130" width="210" height="8" as="geometry" />
        </mxCell>
        <mxCell id="64x59cSJdGSDIxU7Kyna-31" value="&lt;div&gt;setProcessingStatus(): void&lt;/div&gt;&lt;div&gt;extractText(): String&lt;br&gt;addToSummaryRequest(): void&lt;/div&gt;" style="text;strokeColor=none;fillColor=none;align=left;verticalAlign=top;spacingLeft=4;spacingRight=4;overflow=hidden;rotatable=0;points=[[0,0.5],[1,0.5]];portConstraint=eastwest;whiteSpace=wrap;html=1;" parent="64x59cSJdGSDIxU7Kyna-28" vertex="1">
          <mxGeometry y="138" width="210" height="62" as="geometry" />
        </mxCell>
        <mxCell id="64x59cSJdGSDIxU7Kyna-46" style="edgeStyle=orthogonalEdgeStyle;rounded=0;orthogonalLoop=1;jettySize=auto;html=1;exitX=0.92;exitY=-0.01;exitDx=0;exitDy=0;entryX=1;entryY=0.5;entryDx=0;entryDy=0;strokeWidth=3;startSize=20;endSize=20;exitPerimeter=0;" parent="1" source="64x59cSJdGSDIxU7Kyna-33" target="64x59cSJdGSDIxU7Kyna-12" edge="1">
          <mxGeometry relative="1" as="geometry">
            <Array as="points">
              <mxPoint x="799" y="360" />
              <mxPoint x="800" y="360" />
              <mxPoint x="800" y="198" />
            </Array>
          </mxGeometry>
        </mxCell>
        <mxCell id="64x59cSJdGSDIxU7Kyna-33" value="GenAISummarizer" style="swimlane;fontStyle=1;align=center;verticalAlign=top;childLayout=stackLayout;horizontal=1;startSize=26;horizontalStack=0;resizeParent=1;resizeParentMax=0;resizeLast=0;collapsible=1;marginBottom=0;whiteSpace=wrap;html=1;" parent="1" vertex="1">
          <mxGeometry x="560" y="360" width="260" height="100" as="geometry" />
        </mxCell>
        <mxCell id="64x59cSJdGSDIxU7Kyna-35" value="" style="line;strokeWidth=1;fillColor=none;align=left;verticalAlign=middle;spacingTop=-1;spacingLeft=3;spacingRight=3;rotatable=0;labelPosition=right;points=[];portConstraint=eastwest;strokeColor=inherit;" parent="64x59cSJdGSDIxU7Kyna-33" vertex="1">
          <mxGeometry y="26" width="260" height="8" as="geometry" />
        </mxCell>
        <mxCell id="64x59cSJdGSDIxU7Kyna-36" value="summarize(material: List&amp;lt;UploadedMaterial&amp;gt;): List&amp;lt;LectureChapter&amp;gt;&lt;br&gt;storeSummary(List&amp;lt;LectureChapter&amp;gt;): ResponseEntitiy" style="text;strokeColor=none;fillColor=none;align=left;verticalAlign=top;spacingLeft=4;spacingRight=4;overflow=hidden;rotatable=0;points=[[0,0.5],[1,0.5]];portConstraint=eastwest;whiteSpace=wrap;html=1;" parent="64x59cSJdGSDIxU7Kyna-33" vertex="1">
          <mxGeometry y="34" width="260" height="66" as="geometry" />
        </mxCell>
        <mxCell id="64x59cSJdGSDIxU7Kyna-48" style="edgeStyle=orthogonalEdgeStyle;rounded=0;orthogonalLoop=1;jettySize=auto;html=1;exitX=0.992;exitY=0.683;exitDx=0;exitDy=0;endArrow=classic;startFill=0;startArrow=none;strokeWidth=3;exitPerimeter=0;endFill=1;startSize=20;endSize=20;entryX=0.922;entryY=0.975;entryDx=0;entryDy=0;entryPerimeter=0;" parent="1" source="64x59cSJdGSDIxU7Kyna-29" target="64x59cSJdGSDIxU7Kyna-36" edge="1">
          <mxGeometry relative="1" as="geometry">
            <mxPoint x="723.8200000000002" y="629.11" as="sourcePoint" />
            <mxPoint x="740" y="470" as="targetPoint" />
            <Array as="points">
              <mxPoint x="800" y="623" />
            </Array>
          </mxGeometry>
        </mxCell>
        <mxCell id="fCOX_nbEypZg6_mmMfVf-1" value="Return Sucess" style="ellipse;whiteSpace=wrap;html=1;" parent="1" vertex="1">
          <mxGeometry x="2335.37" y="-805.47" width="120" height="60" as="geometry" />
        </mxCell>
        <mxCell id="fCOX_nbEypZg6_mmMfVf-6" style="rounded=0;orthogonalLoop=1;jettySize=auto;html=1;exitX=0.5;exitY=1;exitDx=0;exitDy=0;entryX=0.5;entryY=0;entryDx=0;entryDy=0;" parent="1" source="fCOX_nbEypZg6_mmMfVf-2" target="fCOX_nbEypZg6_mmMfVf-3" edge="1">
          <mxGeometry relative="1" as="geometry" />
        </mxCell>
        <mxCell id="fCOX_nbEypZg6_mmMfVf-7" value="&amp;lt;&amp;lt; extends &amp;gt;&amp;gt;" style="edgeLabel;html=1;align=center;verticalAlign=middle;resizable=0;points=[];" parent="fCOX_nbEypZg6_mmMfVf-6" vertex="1" connectable="0">
          <mxGeometry x="-0.0638" y="-2" relative="1" as="geometry">
            <mxPoint as="offset" />
          </mxGeometry>
        </mxCell>
        <mxCell id="fCOX_nbEypZg6_mmMfVf-2" value="Return Error" style="ellipse;whiteSpace=wrap;html=1;" parent="1" vertex="1">
          <mxGeometry x="2335.37" y="-703.75" width="120" height="60" as="geometry" />
        </mxCell>
        <mxCell id="fCOX_nbEypZg6_mmMfVf-3" value="Retry Upload" style="ellipse;whiteSpace=wrap;html=1;" parent="1" vertex="1">
          <mxGeometry x="2335.37" y="-608.75" width="120" height="60" as="geometry" />
        </mxCell>
        <mxCell id="fCOX_nbEypZg6_mmMfVf-10" value="&lt;div style=&quot;text-align: start;&quot;&gt;Observe and Monitor ==&amp;gt; Grafana and Prometheus&lt;/div&gt;" style="rounded=0;whiteSpace=wrap;html=1;" parent="1" vertex="1">
          <mxGeometry x="19.840000000000003" y="-510" width="790.66" height="40" as="geometry" />
        </mxCell>
        <mxCell id="fCOX_nbEypZg6_mmMfVf-11" value="" style="shape=image;verticalLabelPosition=bottom;labelBackgroundColor=default;verticalAlign=top;aspect=fixed;imageAspect=0;image=https://upload.wikimedia.org/wikipedia/commons/thumb/a/a1/Grafana_logo.svg/1200px-Grafana_logo.svg.png;" parent="1" vertex="1">
          <mxGeometry x="589.1800000000001" y="-504.99" width="29.34" height="29.99" as="geometry" />
        </mxCell>
        <mxCell id="fCOX_nbEypZg6_mmMfVf-12" value="" style="shape=image;verticalLabelPosition=bottom;labelBackgroundColor=default;verticalAlign=top;aspect=fixed;imageAspect=0;image=https://upload.wikimedia.org/wikipedia/commons/thumb/3/38/Prometheus_software_logo.svg/1200px-Prometheus_software_logo.svg.png;" parent="1" vertex="1">
          <mxGeometry x="638.85" y="-503.72" width="27.69" height="27.46" as="geometry" />
        </mxCell>
        <mxCell id="fCOX_nbEypZg6_mmMfVf-13" value="" style="shape=image;verticalLabelPosition=bottom;labelBackgroundColor=default;verticalAlign=top;aspect=fixed;imageAspect=0;image=https://upload.wikimedia.org/wikipedia/commons/thumb/a/a1/Grafana_logo.svg/1200px-Grafana_logo.svg.png;" parent="1" vertex="1">
          <mxGeometry x="631.6000000000001" y="-1085.8000000000002" width="47.09" height="48.13" as="geometry" />
        </mxCell>
        <mxCell id="fCOX_nbEypZg6_mmMfVf-14" value="" style="shape=image;verticalLabelPosition=bottom;labelBackgroundColor=default;verticalAlign=top;aspect=fixed;imageAspect=0;image=https://upload.wikimedia.org/wikipedia/commons/thumb/3/38/Prometheus_software_logo.svg/1200px-Prometheus_software_logo.svg.png;" parent="1" vertex="1">
          <mxGeometry x="631.6000000000001" y="-1024.74" width="45.11" height="44.74" as="geometry" />
        </mxCell>
        <mxCell id="fCOX_nbEypZg6_mmMfVf-15" value="&lt;font style=&quot;font-size: 14px;&quot;&gt;Grafana&lt;/font&gt;" style="text;html=1;align=center;verticalAlign=middle;whiteSpace=wrap;rounded=0;" parent="1" vertex="1">
          <mxGeometry x="560.96" y="-1082.74" width="60" height="30" as="geometry" />
        </mxCell>
        <mxCell id="fCOX_nbEypZg6_mmMfVf-16" value="&lt;font style=&quot;font-size: 14px;&quot;&gt;Prometheus&lt;/font&gt;" style="text;html=1;align=center;verticalAlign=middle;whiteSpace=wrap;rounded=0;" parent="1" vertex="1">
          <mxGeometry x="560.96" y="-1019.9999999999999" width="60" height="30" as="geometry" />
        </mxCell>
        <mxCell id="weDWaoj9ePT-Z9G-oFvS-1" value="Logout" style="ellipse;whiteSpace=wrap;html=1;" parent="1" vertex="1">
          <mxGeometry x="1860" y="-517.11" width="120" height="60" as="geometry" />
        </mxCell>
        <mxCell id="weDWaoj9ePT-Z9G-oFvS-2" value="" style="endArrow=classic;html=1;rounded=0;entryX=0;entryY=0.5;entryDx=0;entryDy=0;endFill=1;exitX=1;exitY=0.3333333333333333;exitDx=0;exitDy=0;exitPerimeter=0;" parent="1" source="oLULSBj5ggAeRswvWHEc-2" target="weDWaoj9ePT-Z9G-oFvS-1" edge="1">
          <mxGeometry width="50" height="50" relative="1" as="geometry">
            <mxPoint x="1760" y="-847.11" as="sourcePoint" />
            <mxPoint x="1910" y="-567.11" as="targetPoint" />
          </mxGeometry>
        </mxCell>
        <mxCell id="weDWaoj9ePT-Z9G-oFvS-4" value="Mark Course as Favorite" style="ellipse;whiteSpace=wrap;html=1;" parent="1" vertex="1">
          <mxGeometry x="1860" y="-597.11" width="120" height="60" as="geometry" />
        </mxCell>
        <mxCell id="weDWaoj9ePT-Z9G-oFvS-5" value="" style="endArrow=classic;html=1;rounded=0;entryX=0;entryY=0.5;entryDx=0;entryDy=0;endFill=1;exitX=1;exitY=0.3333333333333333;exitDx=0;exitDy=0;exitPerimeter=0;" parent="1" source="oLULSBj5ggAeRswvWHEc-2" target="weDWaoj9ePT-Z9G-oFvS-4" edge="1">
          <mxGeometry width="50" height="50" relative="1" as="geometry">
            <mxPoint x="1820" y="-597.11" as="sourcePoint" />
            <mxPoint x="1937" y="-300.11" as="targetPoint" />
          </mxGeometry>
        </mxCell>
        <mxCell id="weDWaoj9ePT-Z9G-oFvS-8" value="&lt;span style=&quot;font-size: 18px;&quot;&gt;Frontend&lt;/span&gt;" style="text;strokeColor=none;align=center;fillColor=none;html=1;verticalAlign=middle;whiteSpace=wrap;rounded=0;fontSize=25;" parent="1" vertex="1">
          <mxGeometry x="152.96" y="-1130" width="60" height="30" as="geometry" />
        </mxCell>
        <mxCell id="weDWaoj9ePT-Z9G-oFvS-9" value="&lt;span style=&quot;font-size: 18px;&quot;&gt;Backend&lt;/span&gt;" style="text;strokeColor=none;align=center;fillColor=none;html=1;verticalAlign=middle;whiteSpace=wrap;rounded=0;fontSize=25;" parent="1" vertex="1">
          <mxGeometry x="278.08" y="-1130" width="60" height="30" as="geometry" />
        </mxCell>
        <mxCell id="weDWaoj9ePT-Z9G-oFvS-10" value="&lt;span style=&quot;font-size: 18px;&quot;&gt;Database&lt;/span&gt;" style="text;strokeColor=none;align=center;fillColor=none;html=1;verticalAlign=middle;whiteSpace=wrap;rounded=0;fontSize=25;" parent="1" vertex="1">
          <mxGeometry x="449.7699999999999" y="-1130" width="60" height="30" as="geometry" />
        </mxCell>
        <mxCell id="weDWaoj9ePT-Z9G-oFvS-11" value="&lt;span style=&quot;font-size: 18px;&quot;&gt;Monitoring&lt;/span&gt;" style="text;strokeColor=none;align=center;fillColor=none;html=1;verticalAlign=middle;whiteSpace=wrap;rounded=0;fontSize=25;" parent="1" vertex="1">
          <mxGeometry x="605.14" y="-1127.5" width="60" height="30" as="geometry" />
        </mxCell>
        <mxCell id="weDWaoj9ePT-Z9G-oFvS-12" value="&lt;span style=&quot;font-size: 18px;&quot;&gt;Gateway&lt;/span&gt;" style="text;strokeColor=none;align=center;fillColor=none;html=1;verticalAlign=middle;whiteSpace=wrap;rounded=0;fontSize=25;" parent="1" vertex="1">
          <mxGeometry x="735.96" y="-1127.5" width="60" height="30" as="geometry" />
        </mxCell>
        <mxCell id="weDWaoj9ePT-Z9G-oFvS-13" value="" style="shape=image;verticalLabelPosition=bottom;labelBackgroundColor=default;verticalAlign=top;aspect=fixed;imageAspect=0;image=data:image/png,iVBORw0KGgoAAAANSUhEUgAAANIAAADwCAIAAAD6n60oAAAAAXNSR0IArs4c6QAAAERlWElmTU0AKgAAAAgAAYdpAAQAAAABAAAAGgAAAAAAA6ABAAMAAAABAAEAAKACAAQAAAABAAAA0qADAAQAAAABAAAA8AAAAAAvd4j2AAATQ0lEQVR4Ae2dX4hWxRvH19TowljxIrBAEKw2ULGgSFaF3IXINCLdRfNCqcRuaotEsS5sLwoKgzKCuthI0BJXRfxz5xrSSrIRCV0oChWhLgYrFoKBib+vv6Pvnj3vOeedOTPPnGdmHm88f+bMPPN9PnvemTPPzEy6detWm/zTUWB0dHTr1q3Tp0/v7+9vb2/XeVTS3lUA2Mk/RQVu3LjxwQcf3FXu9v87duxQfFaSpRWYhJO0jnJcpMDg4GBvb2/u3WPHjnV1deXekou5CtyTe1UuphU4ffr0/Pnzi5hDyu7ubmB3/vz59FNyXKZA+tUnxxkFLl++vHHjxjL5Jt7bvHnz1atXM5nIabMCbc2X5EqiANptE6FSPRsYGBANyxWQtl0OTENDQ/jdzLmhfGnGjBmHDh3q7OxUfiKuhNK2m+Dvs2fPLl++3JA55HjlypVFixatWrXq4sWLEwqQk0SB8pdhPHevX7+OlhkFFdu2bcOXl3iUVKmptO1uq4TWGAVw6Tz37t2r4o9I0sSO3fDw8OzZs9N80B3PmzdvZGQkErDKqxkvdpcuXVq5ciUdZEU5r169Gt9lyr0S/N0YsUMzDu2tIizcXMcgW8wNvuiwQxvLDVgqpUTb4IsIu19++eXxxx9XocFlGph05syZ4H9VMxWMAju0pdatW+cSJt2yYF5UDb7Asfvvv/8yoUq6QLhMj+E4GJx5MQR5GjJ2R44ccQmNlbIwqgazg0QtXakwsUNrqaOjwwoHtWSycOHCsBt8oWGnG6pUC1WKhfb19YUaRhUUdpVDlRQ5qCVZkGFUgQQ+mYcq1YKUeqEnTpxYsmSJenruKdMNPR+Pz507t3TpUu4q27BvxYoVqKyPPmq22eMfWYxxofVjw6E+5YHorABG1XzFzkGoEmcYd+/e3fwK8eiKf9ghVOnBBx/kzIQb2/CFCFJ4hFraVJ+wu3DhQi2hSm4wqlYKBPFxVM0P7DiEKlXDws1T3oVReYAd2jFunOd7KVicIP1DxvmYNXYIAUcguO80uLQf35K8+MjCFDu0VxD87dJhIZXFf1SNHXb4KLV9+/aQIKirLpxXo+KFnY+hSnVRpVIuvjRhVI1hI48LdojzYRhxruJa/mnQ4MO3J1bw1Y8dYnsiHONyDytG1fAdigl8NWMXZKiSe6TUS2QyqlYbdvjIpC6WpLSoABp8tS9OUAN28YQqWWTFelb4PlVjg88pdmhbEK2qZN0rkWSI1RFqmavmDjsZ42KLsvvFCVxgh09HzlZVYuta5obh6xVWTXDWz6XFTkKVmNOWMQ+LE7iZq0aFnYQqZTzq0amDxQlIsGO1qpJH/mZlKuniBJaxQ/tAQpVY0WNiDEbViBYnsIadhCqZOJjzs9gQxnqDzwJ2EqrEGRpbttkNozLFTkKVbPmVfz5YjcpWGFV17CRUiT8oFBZaiZuvgh1+6bU2gKOovORZrwIY5DRp8GljJ6FK9fqbVemVV6PSwE5ClVi5nIkxDzzwQIXFCZSwQ6jS888/z6SeYgZDBbA4gVYYVQvsJFSJoY/ZmqS+qV8ZdpGvqsTWu8wNUwmjysfO5QZwzEUU8yoogDCq8rj5LHZ1bQBXoW7yCHMFSvZ4GcdOQpWYe9FT87AaVXPc/B3sJFTJU6f6YnYmjKpNxrh88Zzvdqb3eJnke2XEfr8UwHQNGDyFudGYS7xhw4bFixfPmjWrvb0d1t68efPvv/8eGxvDmOBvv/32888/79y5k3ktrJuHz7PLli2bM2fOzJkzp02bdu3atdHRUXywPXz48J49e6wXZytDxLDYyooqH7yTyzvh6WlOGEeJZLAY1Swfg0fXkK0UwC7xGhU0hvlmWqBpwsqPERAGXg1L5/k4xifLgUsrg5QMt9Dlix1m1JovPR5e1ALGndJUKR5ze+0xxQ7hDPiNUNS0PBlC7YMJCkRwW3llS+6yIo8pdubvuYwDAlgBA72HTKV0T/n82nLETmUIWVdxpEe/hGdbTdEq9fZckTj4AVEsizoZO+zQDyhSzfw6+rnUghLlj9XDzauPHJj81LLDztaUpCInYd44ERmk2Zq/6hJBkA+pnYqZs8OuCBeL170bd8YXE4vVRxtREQ66ZA3s7qErQz1nN2st9vT04DOEulW1p3zppZcs2oBRDYu5GWbFAjtn25G///77HP7oFX326KOPKqZUSYaRNJVkbtKwwA6f69zUFqXs27fPl+1o7733XouyYPTWYm6GWbHAburUqYbV0Hrcl+6FXVkQMaClEmliFtiR1rA5c7xcfSGv2fgwrsSIHTy3YMEC7zq2YQCX1CJS7FB57zq2gl0gCqBjK7vW1uLLeN92idy7du3q6OioRfqYC40du8mTJ586dSpmAmqpe+zYQXRM0cD0uVrUj7ZQwe626/E7K6vhuvwbEOzuqI1xd8xfdyl9zGUJduPef/fdd6VjOy4H5ZFgN0Hd7777DqsVTbgkJwQKCHZZUb///vvsJTm3rYBgl1UUHVt/g+CzleF6LtjleObhhx+Wjm2OLvYuCXb5WqJji+kz+ffkqrECgl2hhO+88w6fGaaFVvp5Q7Ar89s333wjHdsygareE+xaKCcd2xYCVbot2LWQTTq2LQSqdFuway0bOrbhLSHVutqUKQQ7JXW7urqkY6uklFoiwU5Np7Y2dGyDWblMtc5k6QQ7DWm//PLLUJcK1VDBRlLBTk/F48eP6z0gqfMUCBC78+fPY9uXvMpauHbffffJiK25jgFi9+eff7722mvm0hTlIB3bImXUrweIHdZwwE4Vn3/+uboKuinRsWWyUKGu5UzSB4hdouybb745NDREp/Ibb7whHdvK8gaLHRTp7u5GO6+yNC0flI5tS4mKEoSMHer8yCOP/Pvvv0WVN78uHdtqGgaOHUR56qmnqkmj8hQ6ttjpSyWlpEkrED52v/766+uvv56us93jhx56COt9280z+NzCxw4u/Oqrrz755BM6X2IR3IGBAbr8w8s5Cuzgtk2bNh09epTOf6+88kpfXx9d/oHlHAt2cNvy5cvPnj1L579PP/1URmwV5Y0IOyjy2GOPYQtkRWkqJJOOraJocWEHUUjnRkjHVrDLV+D3339fs2ZN/j0bV9GxHR4etpFTyHlE97aDM/fs2fPhhx/SebWzs1M6tuXyxogdFHnvvfcGBwfLpTG5i46tmx2tTIys8dlIsYPivb29p0+fppP+o48+wtICdPl7nXO82MFt6F789ddfdP47ePAgXeZe5xw1dgl5dKHIU6ZMuXTpktd8EBkfO3bA4sUXXyQSF9ligznp2DbLGzt2UASDZlu2bGmWxtYV6dg2KynY3dbk448//vrrr5vVsXVFOrYZJQW7O4K8+uqrP/30U0Ydi6fo2K5YscJihl5nJdiNuw8BoaOjo+Pnto8OHDjgyw7KtquezU+wm6DI3Llz6YLg0bGVfWwTuQW7CdhduXKF9BsvdlAeGRmZUGSUJ4Jd1u0IXnrrrbeyV+2dP/nkk7t377aXn5c5CXY5bvvss89IZ3e//PLL27Ztyyk4mkuCXb6rqWd3YwflmDu2gl0+drhKPbs75o6tYFeIHW5gdjddEHzMHVvBrgw73HvuuedapDC4jY5tnJ9UBLsW1Pz444/r169vkcjg9oIFC/bu3WuQgZePCnat3YZly0iD4Ht6emLbQVmwa40dUiAInnR2d2w7KAt2StghEfXsbuygjKaeqjWepxPsNByI2d2kQfDxrIos2Glgh6RPP/203gM6qbHRVCQdW8FOh4u2NszuXrVqld4zOqkj6dgKdjpQ/D/t/v37MbSl/ZjyAzF0bAU7ZRxSCfv7+7/99tvUBcuH6Ngi/urGjRuW82WTnWBX0RVr164lnd29b9++gEORBbuK2OExzO6mC4LH4lFYxae6cbyfFOyM/IPJiHSzu40s4/2wYGfkH3Rsn332WaMsonxYsDN1O4Lg3377bdNcIntesLPgcKxaTDq724KJzLIQ7Ow4BLO7T548aSevCHIR7Kw5edGiRRcvXrSWXdAZCXY23Tt//ny62d02Da07L8HOpgeoZ3fbtLXWvAQ7y/KjY0saBG/Z3JqyE+zsC0+9d7d9i53nKNiRSE49u5vEaIeZCnZUYmN2N+kWZ1R2O8lXsCOUmXqLM0LTibMW7GgFfuaZZ2gL8DN3wY7Wb5gbQbrFGa31ZLkLdmTS3s2Yeouzu+X49L9g58Jb1LO7XdTBahmCnVU5izPD7G7SIPjikjneEezceYV6izN3NTEuSbAzllAnA9K9u3UMqTmtYOfUAdji7IUXXnBaJMvCBDvXbjl8+DDp7G7X9alUnmBXSTazh6hnd5tZ5+Jpwc6Fys1lYHY36RZnzSWyusICO7urLtjNjc5b2OLMZRD85MmT6eqimzML7P755x9du0vSexRW/sQTTzizltU+3iyws/sd1aNwIyzSSLrFWfqP84cffkifynHbwoULb9n7t3TpUr80xRZn9mpfmBNErl2WGTNmJPbVbskdA65evVoomM6Ny5cvc6mSjh0DAwM6tdROy2R5WnbYYYV8bS3zHvB3pX3sTpFXITvXVq9erfNXQJWWHXaoKF5UhhrjlUklmJN8jxw5YqhA7uPDw8NOzG9dCEfssONgrmrqF1euXNm66rxT2HrrN0Rj9afIETvwsHnz5oZeugfbt2/nTZSqdejb2mrpXr9+nVXwAVPs4Bns76sLHNIHw1yDTeywXUGH9CNotHBbhpYvdtBd688df9Dr1q1reCukA2zKU7mfgWYiQylYY5fotWPHjvLfGgyC4bsDQ3Gtm4QG35kzZ9JvspLjkZERDp/ockVoYDcp9zafi+glLFu2bM6cOTNnzpw2bdq1a9fA4h9//IGtpzE1ho+dbiyBGkCqo6MDL8L7778fu/ZgpPXmzZv4PcXwLoZnvvjiC6xr68aYCqUAu7GxMTzIHbsKdZNHOCuA9zTMuwcTOVl1djhLJraZKID3NJoKd3JIWgkRbuBsoqA8q6tA5kt4W6Nxii4hPl7oZifpRYFyBdAfwtYdDcySg3HsknNEZQXwrb9cCLnrRgF82Coa8Mxil8CHUbzZs2e7MU5KCU8B9BbwHSfzhkuf5mOXpIjkq1h4Xq+3RiqfuMuwA3xo8GGctN5qSOm+KIC+Ab7hp99qRcctsEseQ5Cgs9hrXyQWO9MKoD9w4cKFIsiarythlzx27NixdElyLApAAYyXoCfQDFb5FQ3skowwVCpyiwKJApVj8bWxA3wYFd24caNIH7MCaPGXB2pYfts1ssNAh4yqRUgeJuahrd/AoNpBlbdduiSecV0R0uCgyogfOXHiRNr7lY9NsUPB6DOHF9zrwIt+FYE2fWXImh+0gF2SKYZBmMyK88ud/K1FO96kGdfMHK5Ywy7JHWFU8+bN4y+lWKiiAJpx6lHNuXgVXbSMXVKMhFGpOJV5mkyoUhFA1a6TYAdTJIyKOVUl5qEZ1xyqVA2voqeosEvKw4CJhFGVOJjbLYQqWW/G5ZJHi11SJHrdEkbFjbCMPfgEi3Z5LiIUF11gl9iN+caZqsopEwVUQpXswucOO9gtYVRMOGuYgVAl6mZcLq9OsUsswNCKdysfNvwUzAE+smqFKuXSU/liDdgltkoYVV0EY2GU8ojzyjCpP1gbdomJEkblGD7zFX3U2SpJWTN2sAw99r6+PsfqR1gcQpXQti5BweWt+rFLaithVHR/CWhJ19iMy6WZC3aJcRJGZRc+NONshSrl0lP5Ii/sUA0Jo7JFnt1QpcqE5T7IDrvESgmjMoEPbWU3Y1y5SKlcZIpdYjr6+RJGpcWflYhzFW4M07DGLqmbjKopkodPoYY0OHvcA+yghYRRlZOHVZUUp+M7A6u8ID+wS+ogYVTN8CGurGhVpXLH13vXJ+wSpTAHndu69800OLiCFYxrH+OqzK5/2CVVjXw1KiZjXNFhhwqjwRfhqBrGuPxqxuWi6evbrlGZeMKosCeb+XT8hm71HkxC8Q4aItRFDA0NdXd3U5dSY/4Y41qyZEmNBtgtmsWm7eZV6urqwt9PkGFUyapKITF32931vmytl46vCcGsRoXN3JmPcVV2X2jYJUIgjArfF8xfonXlgJ1DgmnG5aIZJnZJVX0Mo8KqSqTT8XMhcH8xZOygJqZFYeCorpeWbrmcQ5Xsohk4dolYaPAx33MW7VEfx7gqsxgFdok6PDf1SzaAq+w/Tx8M5Lud+s/Z4OBgb2+venrSlGjGxbnzQiDf7dTh6Onp4RBGlWwAFydzt53l6Vva3GyEUdXi9ZIN4Mwr5UsO8WKXeAiDTs7CqFpuAOcLNOZ2xo5doqCDMCr3qyqZw0GXg2B3R1u6MCr1DeDo3MwtZ8FugkcwqmZxNSrdDeAmmBL0SXQfUFT6vOZhVBjjOnToUGdnp0pxEaaJ7gOKio+TMKrKe7ygpTg2NibMlUkd9LvctHK6YVSGG8CZmuvP89K2a+0rlT1efJmO37q2TlJI267spyB9r2hUDc04fBzB73I6sRyXKyBtu3J9xu9iVA1TtjJhVAhVQjNOmBuXSe1I3nZqOqVSjY6Obt26dfr06f39/e3t7ak7cqiqwP8ANWsK/LXxDHEAAAAASUVORK5CYII=;" parent="1" vertex="1">
          <mxGeometry x="740.46" y="-1044.1399999999999" width="51" height="58.28" as="geometry" />
        </mxCell>
        <mxCell id="weDWaoj9ePT-Z9G-oFvS-14" value="&lt;font style=&quot;font-size: 14px;&quot;&gt;Nginx&lt;/font&gt;" style="text;html=1;align=center;verticalAlign=middle;whiteSpace=wrap;rounded=0;" parent="1" vertex="1">
          <mxGeometry x="735.9600000000002" y="-1089" width="60" height="30" as="geometry" />
        </mxCell>
        <mxCell id="weDWaoj9ePT-Z9G-oFvS-15" value="" style="shape=image;verticalLabelPosition=bottom;labelBackgroundColor=default;verticalAlign=top;aspect=fixed;imageAspect=0;image=data:image/png,iVBORw0KGgoAAAANSUhEUgAAANIAAADwCAIAAAD6n60oAAAAAXNSR0IArs4c6QAAAERlWElmTU0AKgAAAAgAAYdpAAQAAAABAAAAGgAAAAAAA6ABAAMAAAABAAEAAKACAAQAAAABAAAA0qADAAQAAAABAAAA8AAAAAAvd4j2AAATQ0lEQVR4Ae2dX4hWxRvH19TowljxIrBAEKw2ULGgSFaF3IXINCLdRfNCqcRuaotEsS5sLwoKgzKCuthI0BJXRfxz5xrSSrIRCV0oChWhLgYrFoKBib+vv6Pvnj3vOeedOTPPnGdmHm88f+bMPPN9PnvemTPPzEy6detWm/zTUWB0dHTr1q3Tp0/v7+9vb2/XeVTS3lUA2Mk/RQVu3LjxwQcf3FXu9v87duxQfFaSpRWYhJO0jnJcpMDg4GBvb2/u3WPHjnV1deXekou5CtyTe1UuphU4ffr0/Pnzi5hDyu7ubmB3/vz59FNyXKZA+tUnxxkFLl++vHHjxjL5Jt7bvHnz1atXM5nIabMCbc2X5EqiANptE6FSPRsYGBANyxWQtl0OTENDQ/jdzLmhfGnGjBmHDh3q7OxUfiKuhNK2m+Dvs2fPLl++3JA55HjlypVFixatWrXq4sWLEwqQk0SB8pdhPHevX7+OlhkFFdu2bcOXl3iUVKmptO1uq4TWGAVw6Tz37t2r4o9I0sSO3fDw8OzZs9N80B3PmzdvZGQkErDKqxkvdpcuXVq5ciUdZEU5r169Gt9lyr0S/N0YsUMzDu2tIizcXMcgW8wNvuiwQxvLDVgqpUTb4IsIu19++eXxxx9XocFlGph05syZ4H9VMxWMAju0pdatW+cSJt2yYF5UDb7Asfvvv/8yoUq6QLhMj+E4GJx5MQR5GjJ2R44ccQmNlbIwqgazg0QtXakwsUNrqaOjwwoHtWSycOHCsBt8oWGnG6pUC1WKhfb19YUaRhUUdpVDlRQ5qCVZkGFUgQQ+mYcq1YKUeqEnTpxYsmSJenruKdMNPR+Pz507t3TpUu4q27BvxYoVqKyPPmq22eMfWYxxofVjw6E+5YHorABG1XzFzkGoEmcYd+/e3fwK8eiKf9ghVOnBBx/kzIQb2/CFCFJ4hFraVJ+wu3DhQi2hSm4wqlYKBPFxVM0P7DiEKlXDws1T3oVReYAd2jFunOd7KVicIP1DxvmYNXYIAUcguO80uLQf35K8+MjCFDu0VxD87dJhIZXFf1SNHXb4KLV9+/aQIKirLpxXo+KFnY+hSnVRpVIuvjRhVI1hI48LdojzYRhxruJa/mnQ4MO3J1bw1Y8dYnsiHONyDytG1fAdigl8NWMXZKiSe6TUS2QyqlYbdvjIpC6WpLSoABp8tS9OUAN28YQqWWTFelb4PlVjg88pdmhbEK2qZN0rkWSI1RFqmavmDjsZ42KLsvvFCVxgh09HzlZVYuta5obh6xVWTXDWz6XFTkKVmNOWMQ+LE7iZq0aFnYQqZTzq0amDxQlIsGO1qpJH/mZlKuniBJaxQ/tAQpVY0WNiDEbViBYnsIadhCqZOJjzs9gQxnqDzwJ2EqrEGRpbttkNozLFTkKVbPmVfz5YjcpWGFV17CRUiT8oFBZaiZuvgh1+6bU2gKOovORZrwIY5DRp8GljJ6FK9fqbVemVV6PSwE5ClVi5nIkxDzzwQIXFCZSwQ6jS888/z6SeYgZDBbA4gVYYVQvsJFSJoY/ZmqS+qV8ZdpGvqsTWu8wNUwmjysfO5QZwzEUU8yoogDCq8rj5LHZ1bQBXoW7yCHMFSvZ4GcdOQpWYe9FT87AaVXPc/B3sJFTJU6f6YnYmjKpNxrh88Zzvdqb3eJnke2XEfr8UwHQNGDyFudGYS7xhw4bFixfPmjWrvb0d1t68efPvv/8eGxvDmOBvv/32888/79y5k3ktrJuHz7PLli2bM2fOzJkzp02bdu3atdHRUXywPXz48J49e6wXZytDxLDYyooqH7yTyzvh6WlOGEeJZLAY1Swfg0fXkK0UwC7xGhU0hvlmWqBpwsqPERAGXg1L5/k4xifLgUsrg5QMt9Dlix1m1JovPR5e1ALGndJUKR5ze+0xxQ7hDPiNUNS0PBlC7YMJCkRwW3llS+6yIo8pdubvuYwDAlgBA72HTKV0T/n82nLETmUIWVdxpEe/hGdbTdEq9fZckTj4AVEsizoZO+zQDyhSzfw6+rnUghLlj9XDzauPHJj81LLDztaUpCInYd44ERmk2Zq/6hJBkA+pnYqZs8OuCBeL170bd8YXE4vVRxtREQ66ZA3s7qErQz1nN2st9vT04DOEulW1p3zppZcs2oBRDYu5GWbFAjtn25G///77HP7oFX326KOPKqZUSYaRNJVkbtKwwA6f69zUFqXs27fPl+1o7733XouyYPTWYm6GWbHAburUqYbV0Hrcl+6FXVkQMaClEmliFtiR1rA5c7xcfSGv2fgwrsSIHTy3YMEC7zq2YQCX1CJS7FB57zq2gl0gCqBjK7vW1uLLeN92idy7du3q6OioRfqYC40du8mTJ586dSpmAmqpe+zYQXRM0cD0uVrUj7ZQwe626/E7K6vhuvwbEOzuqI1xd8xfdyl9zGUJduPef/fdd6VjOy4H5ZFgN0Hd7777DqsVTbgkJwQKCHZZUb///vvsJTm3rYBgl1UUHVt/g+CzleF6LtjleObhhx+Wjm2OLvYuCXb5WqJji+kz+ffkqrECgl2hhO+88w6fGaaFVvp5Q7Ar89s333wjHdsygareE+xaKCcd2xYCVbot2LWQTTq2LQSqdFuway0bOrbhLSHVutqUKQQ7JXW7urqkY6uklFoiwU5Np7Y2dGyDWblMtc5k6QQ7DWm//PLLUJcK1VDBRlLBTk/F48eP6z0gqfMUCBC78+fPY9uXvMpauHbffffJiK25jgFi9+eff7722mvm0hTlIB3bImXUrweIHdZwwE4Vn3/+uboKuinRsWWyUKGu5UzSB4hdouybb745NDREp/Ibb7whHdvK8gaLHRTp7u5GO6+yNC0flI5tS4mKEoSMHer8yCOP/Pvvv0WVN78uHdtqGgaOHUR56qmnqkmj8hQ6ttjpSyWlpEkrED52v/766+uvv56us93jhx56COt9280z+NzCxw4u/Oqrrz755BM6X2IR3IGBAbr8w8s5Cuzgtk2bNh09epTOf6+88kpfXx9d/oHlHAt2cNvy5cvPnj1L579PP/1URmwV5Y0IOyjy2GOPYQtkRWkqJJOOraJocWEHUUjnRkjHVrDLV+D3339fs2ZN/j0bV9GxHR4etpFTyHlE97aDM/fs2fPhhx/SebWzs1M6tuXyxogdFHnvvfcGBwfLpTG5i46tmx2tTIys8dlIsYPivb29p0+fppP+o48+wtICdPl7nXO82MFt6F789ddfdP47ePAgXeZe5xw1dgl5dKHIU6ZMuXTpktd8EBkfO3bA4sUXXyQSF9ligznp2DbLGzt2UASDZlu2bGmWxtYV6dg2KynY3dbk448//vrrr5vVsXVFOrYZJQW7O4K8+uqrP/30U0Ydi6fo2K5YscJihl5nJdiNuw8BoaOjo+Pnto8OHDjgyw7KtquezU+wm6DI3Llz6YLg0bGVfWwTuQW7CdhduXKF9BsvdlAeGRmZUGSUJ4Jd1u0IXnrrrbeyV+2dP/nkk7t377aXn5c5CXY5bvvss89IZ3e//PLL27Ztyyk4mkuCXb6rqWd3YwflmDu2gl0+drhKPbs75o6tYFeIHW5gdjddEHzMHVvBrgw73HvuuedapDC4jY5tnJ9UBLsW1Pz444/r169vkcjg9oIFC/bu3WuQgZePCnat3YZly0iD4Ht6emLbQVmwa40dUiAInnR2d2w7KAt2StghEfXsbuygjKaeqjWepxPsNByI2d2kQfDxrIos2Glgh6RPP/203gM6qbHRVCQdW8FOh4u2NszuXrVqld4zOqkj6dgKdjpQ/D/t/v37MbSl/ZjyAzF0bAU7ZRxSCfv7+7/99tvUBcuH6Ngi/urGjRuW82WTnWBX0RVr164lnd29b9++gEORBbuK2OExzO6mC4LH4lFYxae6cbyfFOyM/IPJiHSzu40s4/2wYGfkH3Rsn332WaMsonxYsDN1O4Lg3377bdNcIntesLPgcKxaTDq724KJzLIQ7Ow4BLO7T548aSevCHIR7Kw5edGiRRcvXrSWXdAZCXY23Tt//ny62d02Da07L8HOpgeoZ3fbtLXWvAQ7y/KjY0saBG/Z3JqyE+zsC0+9d7d9i53nKNiRSE49u5vEaIeZCnZUYmN2N+kWZ1R2O8lXsCOUmXqLM0LTibMW7GgFfuaZZ2gL8DN3wY7Wb5gbQbrFGa31ZLkLdmTS3s2Yeouzu+X49L9g58Jb1LO7XdTBahmCnVU5izPD7G7SIPjikjneEezceYV6izN3NTEuSbAzllAnA9K9u3UMqTmtYOfUAdji7IUXXnBaJMvCBDvXbjl8+DDp7G7X9alUnmBXSTazh6hnd5tZ5+Jpwc6Fys1lYHY36RZnzSWyusICO7urLtjNjc5b2OLMZRD85MmT6eqimzML7P755x9du0vSexRW/sQTTzizltU+3iyws/sd1aNwIyzSSLrFWfqP84cffkifynHbwoULb9n7t3TpUr80xRZn9mpfmBNErl2WGTNmJPbVbskdA65evVoomM6Ny5cvc6mSjh0DAwM6tdROy2R5WnbYYYV8bS3zHvB3pX3sTpFXITvXVq9erfNXQJWWHXaoKF5UhhrjlUklmJN8jxw5YqhA7uPDw8NOzG9dCEfssONgrmrqF1euXNm66rxT2HrrN0Rj9afIETvwsHnz5oZeugfbt2/nTZSqdejb2mrpXr9+nVXwAVPs4Bns76sLHNIHw1yDTeywXUGH9CNotHBbhpYvdtBd688df9Dr1q1reCukA2zKU7mfgWYiQylYY5fotWPHjvLfGgyC4bsDQ3Gtm4QG35kzZ9JvspLjkZERDp/ockVoYDcp9zafi+glLFu2bM6cOTNnzpw2bdq1a9fA4h9//IGtpzE1ho+dbiyBGkCqo6MDL8L7778fu/ZgpPXmzZv4PcXwLoZnvvjiC6xr68aYCqUAu7GxMTzIHbsKdZNHOCuA9zTMuwcTOVl1djhLJraZKID3NJoKd3JIWgkRbuBsoqA8q6tA5kt4W6Nxii4hPl7oZifpRYFyBdAfwtYdDcySg3HsknNEZQXwrb9cCLnrRgF82Coa8Mxil8CHUbzZs2e7MU5KCU8B9BbwHSfzhkuf5mOXpIjkq1h4Xq+3RiqfuMuwA3xo8GGctN5qSOm+KIC+Ab7hp99qRcctsEseQ5Cgs9hrXyQWO9MKoD9w4cKFIsiarythlzx27NixdElyLApAAYyXoCfQDFb5FQ3skowwVCpyiwKJApVj8bWxA3wYFd24caNIH7MCaPGXB2pYfts1ssNAh4yqRUgeJuahrd/AoNpBlbdduiSecV0R0uCgyogfOXHiRNr7lY9NsUPB6DOHF9zrwIt+FYE2fWXImh+0gF2SKYZBmMyK88ud/K1FO96kGdfMHK5Ywy7JHWFU8+bN4y+lWKiiAJpx6lHNuXgVXbSMXVKMhFGpOJV5mkyoUhFA1a6TYAdTJIyKOVUl5qEZ1xyqVA2voqeosEvKw4CJhFGVOJjbLYQqWW/G5ZJHi11SJHrdEkbFjbCMPfgEi3Z5LiIUF11gl9iN+caZqsopEwVUQpXswucOO9gtYVRMOGuYgVAl6mZcLq9OsUsswNCKdysfNvwUzAE+smqFKuXSU/liDdgltkoYVV0EY2GU8ojzyjCpP1gbdomJEkblGD7zFX3U2SpJWTN2sAw99r6+PsfqR1gcQpXQti5BweWt+rFLaithVHR/CWhJ19iMy6WZC3aJcRJGZRc+NONshSrl0lP5Ii/sUA0Jo7JFnt1QpcqE5T7IDrvESgmjMoEPbWU3Y1y5SKlcZIpdYjr6+RJGpcWflYhzFW4M07DGLqmbjKopkodPoYY0OHvcA+yghYRRlZOHVZUUp+M7A6u8ID+wS+ogYVTN8CGurGhVpXLH13vXJ+wSpTAHndu69800OLiCFYxrH+OqzK5/2CVVjXw1KiZjXNFhhwqjwRfhqBrGuPxqxuWi6evbrlGZeMKosCeb+XT8hm71HkxC8Q4aItRFDA0NdXd3U5dSY/4Y41qyZEmNBtgtmsWm7eZV6urqwt9PkGFUyapKITF32931vmytl46vCcGsRoXN3JmPcVV2X2jYJUIgjArfF8xfonXlgJ1DgmnG5aIZJnZJVX0Mo8KqSqTT8XMhcH8xZOygJqZFYeCorpeWbrmcQ5Xsohk4dolYaPAx33MW7VEfx7gqsxgFdok6PDf1SzaAq+w/Tx8M5Lud+s/Z4OBgb2+venrSlGjGxbnzQiDf7dTh6Onp4RBGlWwAFydzt53l6Vva3GyEUdXi9ZIN4Mwr5UsO8WKXeAiDTs7CqFpuAOcLNOZ2xo5doqCDMCr3qyqZw0GXg2B3R1u6MCr1DeDo3MwtZ8FugkcwqmZxNSrdDeAmmBL0SXQfUFT6vOZhVBjjOnToUGdnp0pxEaaJ7gOKio+TMKrKe7ygpTg2NibMlUkd9LvctHK6YVSGG8CZmuvP89K2a+0rlT1efJmO37q2TlJI267spyB9r2hUDc04fBzB73I6sRyXKyBtu3J9xu9iVA1TtjJhVAhVQjNOmBuXSe1I3nZqOqVSjY6Obt26dfr06f39/e3t7ak7cqiqwP8ANWsK/LXxDHEAAAAASUVORK5CYII=;" parent="1" vertex="1">
          <mxGeometry x="341.35" y="-787.5" width="35.69" height="40.78" as="geometry" />
        </mxCell>
        <mxCell id="weDWaoj9ePT-Z9G-oFvS-17" value="&lt;font size=&quot;1&quot;&gt;Add Summarized Chapter&lt;/font&gt;" style="edgeLabel;html=1;align=center;verticalAlign=middle;resizable=0;points=[];" parent="1" vertex="1" connectable="0">
          <mxGeometry x="459.84000000000003" y="-580" as="geometry">
            <mxPoint x="3" y="-5" as="offset" />
          </mxGeometry>
        </mxCell>
        <mxCell id="KDrlDWdHb5qRK4MYrsri-4" style="edgeStyle=orthogonalEdgeStyle;rounded=0;orthogonalLoop=1;jettySize=auto;html=1;endArrow=none;endFill=0;startArrow=classic;startFill=1;strokeWidth=3;startSize=20;endSize=20;" parent="1" source="64x59cSJdGSDIxU7Kyna-5" target="64x59cSJdGSDIxU7Kyna-23" edge="1">
          <mxGeometry relative="1" as="geometry">
            <mxPoint x="438" y="450" as="targetPoint" />
            <Array as="points">
              <mxPoint x="225" y="500" />
              <mxPoint x="225" y="500" />
            </Array>
            <mxPoint x="239" y="450" as="sourcePoint" />
          </mxGeometry>
        </mxCell>
        <mxCell id="KDrlDWdHb5qRK4MYrsri-5" value="0..*" style="edgeLabel;html=1;align=center;verticalAlign=middle;resizable=0;points=[];" parent="KDrlDWdHb5qRK4MYrsri-4" vertex="1" connectable="0">
          <mxGeometry x="0.3598" relative="1" as="geometry">
            <mxPoint x="22" y="-86" as="offset" />
          </mxGeometry>
        </mxCell>
        <mxCell id="KDrlDWdHb5qRK4MYrsri-6" style="edgeStyle=orthogonalEdgeStyle;rounded=0;orthogonalLoop=1;jettySize=auto;html=1;endArrow=none;endFill=0;startArrow=classic;startFill=1;strokeWidth=3;startSize=20;entryX=0.993;entryY=0.942;entryDx=0;entryDy=0;entryPerimeter=0;endSize=20;" parent="1" target="64x59cSJdGSDIxU7Kyna-24" edge="1">
          <mxGeometry relative="1" as="geometry">
            <mxPoint x="539" y="645" as="targetPoint" />
            <Array as="points">
              <mxPoint x="510" y="640" />
              <mxPoint x="450" y="640" />
            </Array>
            <mxPoint x="510" y="640" as="sourcePoint" />
          </mxGeometry>
        </mxCell>
        <mxCell id="KDrlDWdHb5qRK4MYrsri-7" value="0..*" style="edgeLabel;html=1;align=center;verticalAlign=middle;resizable=0;points=[];" parent="KDrlDWdHb5qRK4MYrsri-6" vertex="1" connectable="0">
          <mxGeometry x="0.3598" relative="1" as="geometry">
            <mxPoint x="59" y="-14" as="offset" />
          </mxGeometry>
        </mxCell>
        <mxCell id="mBPd-7IohTFNbpZ4iidR-1" value="" style="shape=image;verticalLabelPosition=bottom;labelBackgroundColor=default;verticalAlign=top;aspect=fixed;imageAspect=0;image=data:image/png,iVBORw0KGgoAAAANSUhEUgAAANIAAADwCAIAAAD6n60oAAAAAXNSR0IArs4c6QAAAERlWElmTU0AKgAAAAgAAYdpAAQAAAABAAAAGgAAAAAAA6ABAAMAAAABAAEAAKACAAQAAAABAAAA0qADAAQAAAABAAAA8AAAAAAvd4j2AAATQ0lEQVR4Ae2dX4hWxRvH19TowljxIrBAEKw2ULGgSFaF3IXINCLdRfNCqcRuaotEsS5sLwoKgzKCuthI0BJXRfxz5xrSSrIRCV0oChWhLgYrFoKBib+vv6Pvnj3vOeedOTPPnGdmHm88f+bMPPN9PnvemTPPzEy6detWm/zTUWB0dHTr1q3Tp0/v7+9vb2/XeVTS3lUA2Mk/RQVu3LjxwQcf3FXu9v87duxQfFaSpRWYhJO0jnJcpMDg4GBvb2/u3WPHjnV1deXekou5CtyTe1UuphU4ffr0/Pnzi5hDyu7ubmB3/vz59FNyXKZA+tUnxxkFLl++vHHjxjL5Jt7bvHnz1atXM5nIabMCbc2X5EqiANptE6FSPRsYGBANyxWQtl0OTENDQ/jdzLmhfGnGjBmHDh3q7OxUfiKuhNK2m+Dvs2fPLl++3JA55HjlypVFixatWrXq4sWLEwqQk0SB8pdhPHevX7+OlhkFFdu2bcOXl3iUVKmptO1uq4TWGAVw6Tz37t2r4o9I0sSO3fDw8OzZs9N80B3PmzdvZGQkErDKqxkvdpcuXVq5ciUdZEU5r169Gt9lyr0S/N0YsUMzDu2tIizcXMcgW8wNvuiwQxvLDVgqpUTb4IsIu19++eXxxx9XocFlGph05syZ4H9VMxWMAju0pdatW+cSJt2yYF5UDb7Asfvvv/8yoUq6QLhMj+E4GJx5MQR5GjJ2R44ccQmNlbIwqgazg0QtXakwsUNrqaOjwwoHtWSycOHCsBt8oWGnG6pUC1WKhfb19YUaRhUUdpVDlRQ5qCVZkGFUgQQ+mYcq1YKUeqEnTpxYsmSJenruKdMNPR+Pz507t3TpUu4q27BvxYoVqKyPPmq22eMfWYxxofVjw6E+5YHorABG1XzFzkGoEmcYd+/e3fwK8eiKf9ghVOnBBx/kzIQb2/CFCFJ4hFraVJ+wu3DhQi2hSm4wqlYKBPFxVM0P7DiEKlXDws1T3oVReYAd2jFunOd7KVicIP1DxvmYNXYIAUcguO80uLQf35K8+MjCFDu0VxD87dJhIZXFf1SNHXb4KLV9+/aQIKirLpxXo+KFnY+hSnVRpVIuvjRhVI1hI48LdojzYRhxruJa/mnQ4MO3J1bw1Y8dYnsiHONyDytG1fAdigl8NWMXZKiSe6TUS2QyqlYbdvjIpC6WpLSoABp8tS9OUAN28YQqWWTFelb4PlVjg88pdmhbEK2qZN0rkWSI1RFqmavmDjsZ42KLsvvFCVxgh09HzlZVYuta5obh6xVWTXDWz6XFTkKVmNOWMQ+LE7iZq0aFnYQqZTzq0amDxQlIsGO1qpJH/mZlKuniBJaxQ/tAQpVY0WNiDEbViBYnsIadhCqZOJjzs9gQxnqDzwJ2EqrEGRpbttkNozLFTkKVbPmVfz5YjcpWGFV17CRUiT8oFBZaiZuvgh1+6bU2gKOovORZrwIY5DRp8GljJ6FK9fqbVemVV6PSwE5ClVi5nIkxDzzwQIXFCZSwQ6jS888/z6SeYgZDBbA4gVYYVQvsJFSJoY/ZmqS+qV8ZdpGvqsTWu8wNUwmjysfO5QZwzEUU8yoogDCq8rj5LHZ1bQBXoW7yCHMFSvZ4GcdOQpWYe9FT87AaVXPc/B3sJFTJU6f6YnYmjKpNxrh88Zzvdqb3eJnke2XEfr8UwHQNGDyFudGYS7xhw4bFixfPmjWrvb0d1t68efPvv/8eGxvDmOBvv/32888/79y5k3ktrJuHz7PLli2bM2fOzJkzp02bdu3atdHRUXywPXz48J49e6wXZytDxLDYyooqH7yTyzvh6WlOGEeJZLAY1Swfg0fXkK0UwC7xGhU0hvlmWqBpwsqPERAGXg1L5/k4xifLgUsrg5QMt9Dlix1m1JovPR5e1ALGndJUKR5ze+0xxQ7hDPiNUNS0PBlC7YMJCkRwW3llS+6yIo8pdubvuYwDAlgBA72HTKV0T/n82nLETmUIWVdxpEe/hGdbTdEq9fZckTj4AVEsizoZO+zQDyhSzfw6+rnUghLlj9XDzauPHJj81LLDztaUpCInYd44ERmk2Zq/6hJBkA+pnYqZs8OuCBeL170bd8YXE4vVRxtREQ66ZA3s7qErQz1nN2st9vT04DOEulW1p3zppZcs2oBRDYu5GWbFAjtn25G///77HP7oFX326KOPKqZUSYaRNJVkbtKwwA6f69zUFqXs27fPl+1o7733XouyYPTWYm6GWbHAburUqYbV0Hrcl+6FXVkQMaClEmliFtiR1rA5c7xcfSGv2fgwrsSIHTy3YMEC7zq2YQCX1CJS7FB57zq2gl0gCqBjK7vW1uLLeN92idy7du3q6OioRfqYC40du8mTJ586dSpmAmqpe+zYQXRM0cD0uVrUj7ZQwe626/E7K6vhuvwbEOzuqI1xd8xfdyl9zGUJduPef/fdd6VjOy4H5ZFgN0Hd7777DqsVTbgkJwQKCHZZUb///vvsJTm3rYBgl1UUHVt/g+CzleF6LtjleObhhx+Wjm2OLvYuCXb5WqJji+kz+ffkqrECgl2hhO+88w6fGaaFVvp5Q7Ar89s333wjHdsygareE+xaKCcd2xYCVbot2LWQTTq2LQSqdFuway0bOrbhLSHVutqUKQQ7JXW7urqkY6uklFoiwU5Np7Y2dGyDWblMtc5k6QQ7DWm//PLLUJcK1VDBRlLBTk/F48eP6z0gqfMUCBC78+fPY9uXvMpauHbffffJiK25jgFi9+eff7722mvm0hTlIB3bImXUrweIHdZwwE4Vn3/+uboKuinRsWWyUKGu5UzSB4hdouybb745NDREp/Ibb7whHdvK8gaLHRTp7u5GO6+yNC0flI5tS4mKEoSMHer8yCOP/Pvvv0WVN78uHdtqGgaOHUR56qmnqkmj8hQ6ttjpSyWlpEkrED52v/766+uvv56us93jhx56COt9280z+NzCxw4u/Oqrrz755BM6X2IR3IGBAbr8w8s5Cuzgtk2bNh09epTOf6+88kpfXx9d/oHlHAt2cNvy5cvPnj1L579PP/1URmwV5Y0IOyjy2GOPYQtkRWkqJJOOraJocWEHUUjnRkjHVrDLV+D3339fs2ZN/j0bV9GxHR4etpFTyHlE97aDM/fs2fPhhx/SebWzs1M6tuXyxogdFHnvvfcGBwfLpTG5i46tmx2tTIys8dlIsYPivb29p0+fppP+o48+wtICdPl7nXO82MFt6F789ddfdP47ePAgXeZe5xw1dgl5dKHIU6ZMuXTpktd8EBkfO3bA4sUXXyQSF9ligznp2DbLGzt2UASDZlu2bGmWxtYV6dg2KynY3dbk448//vrrr5vVsXVFOrYZJQW7O4K8+uqrP/30U0Ydi6fo2K5YscJihl5nJdiNuw8BoaOjo+Pnto8OHDjgyw7KtquezU+wm6DI3Llz6YLg0bGVfWwTuQW7CdhduXKF9BsvdlAeGRmZUGSUJ4Jd1u0IXnrrrbeyV+2dP/nkk7t377aXn5c5CXY5bvvss89IZ3e//PLL27Ztyyk4mkuCXb6rqWd3YwflmDu2gl0+drhKPbs75o6tYFeIHW5gdjddEHzMHVvBrgw73HvuuedapDC4jY5tnJ9UBLsW1Pz444/r169vkcjg9oIFC/bu3WuQgZePCnat3YZly0iD4Ht6emLbQVmwa40dUiAInnR2d2w7KAt2StghEfXsbuygjKaeqjWepxPsNByI2d2kQfDxrIos2Glgh6RPP/203gM6qbHRVCQdW8FOh4u2NszuXrVqld4zOqkj6dgKdjpQ/D/t/v37MbSl/ZjyAzF0bAU7ZRxSCfv7+7/99tvUBcuH6Ngi/urGjRuW82WTnWBX0RVr164lnd29b9++gEORBbuK2OExzO6mC4LH4lFYxae6cbyfFOyM/IPJiHSzu40s4/2wYGfkH3Rsn332WaMsonxYsDN1O4Lg3377bdNcIntesLPgcKxaTDq724KJzLIQ7Ow4BLO7T548aSevCHIR7Kw5edGiRRcvXrSWXdAZCXY23Tt//ny62d02Da07L8HOpgeoZ3fbtLXWvAQ7y/KjY0saBG/Z3JqyE+zsC0+9d7d9i53nKNiRSE49u5vEaIeZCnZUYmN2N+kWZ1R2O8lXsCOUmXqLM0LTibMW7GgFfuaZZ2gL8DN3wY7Wb5gbQbrFGa31ZLkLdmTS3s2Yeouzu+X49L9g58Jb1LO7XdTBahmCnVU5izPD7G7SIPjikjneEezceYV6izN3NTEuSbAzllAnA9K9u3UMqTmtYOfUAdji7IUXXnBaJMvCBDvXbjl8+DDp7G7X9alUnmBXSTazh6hnd5tZ5+Jpwc6Fys1lYHY36RZnzSWyusICO7urLtjNjc5b2OLMZRD85MmT6eqimzML7P755x9du0vSexRW/sQTTzizltU+3iyws/sd1aNwIyzSSLrFWfqP84cffkifynHbwoULb9n7t3TpUr80xRZn9mpfmBNErl2WGTNmJPbVbskdA65evVoomM6Ny5cvc6mSjh0DAwM6tdROy2R5WnbYYYV8bS3zHvB3pX3sTpFXITvXVq9erfNXQJWWHXaoKF5UhhrjlUklmJN8jxw5YqhA7uPDw8NOzG9dCEfssONgrmrqF1euXNm66rxT2HrrN0Rj9afIETvwsHnz5oZeugfbt2/nTZSqdejb2mrpXr9+nVXwAVPs4Bns76sLHNIHw1yDTeywXUGH9CNotHBbhpYvdtBd688df9Dr1q1reCukA2zKU7mfgWYiQylYY5fotWPHjvLfGgyC4bsDQ3Gtm4QG35kzZ9JvspLjkZERDp/ockVoYDcp9zafi+glLFu2bM6cOTNnzpw2bdq1a9fA4h9//IGtpzE1ho+dbiyBGkCqo6MDL8L7778fu/ZgpPXmzZv4PcXwLoZnvvjiC6xr68aYCqUAu7GxMTzIHbsKdZNHOCuA9zTMuwcTOVl1djhLJraZKID3NJoKd3JIWgkRbuBsoqA8q6tA5kt4W6Nxii4hPl7oZifpRYFyBdAfwtYdDcySg3HsknNEZQXwrb9cCLnrRgF82Coa8Mxil8CHUbzZs2e7MU5KCU8B9BbwHSfzhkuf5mOXpIjkq1h4Xq+3RiqfuMuwA3xo8GGctN5qSOm+KIC+Ab7hp99qRcctsEseQ5Cgs9hrXyQWO9MKoD9w4cKFIsiarythlzx27NixdElyLApAAYyXoCfQDFb5FQ3skowwVCpyiwKJApVj8bWxA3wYFd24caNIH7MCaPGXB2pYfts1ssNAh4yqRUgeJuahrd/AoNpBlbdduiSecV0R0uCgyogfOXHiRNr7lY9NsUPB6DOHF9zrwIt+FYE2fWXImh+0gF2SKYZBmMyK88ud/K1FO96kGdfMHK5Ywy7JHWFU8+bN4y+lWKiiAJpx6lHNuXgVXbSMXVKMhFGpOJV5mkyoUhFA1a6TYAdTJIyKOVUl5qEZ1xyqVA2voqeosEvKw4CJhFGVOJjbLYQqWW/G5ZJHi11SJHrdEkbFjbCMPfgEi3Z5LiIUF11gl9iN+caZqsopEwVUQpXswucOO9gtYVRMOGuYgVAl6mZcLq9OsUsswNCKdysfNvwUzAE+smqFKuXSU/liDdgltkoYVV0EY2GU8ojzyjCpP1gbdomJEkblGD7zFX3U2SpJWTN2sAw99r6+PsfqR1gcQpXQti5BweWt+rFLaithVHR/CWhJ19iMy6WZC3aJcRJGZRc+NONshSrl0lP5Ii/sUA0Jo7JFnt1QpcqE5T7IDrvESgmjMoEPbWU3Y1y5SKlcZIpdYjr6+RJGpcWflYhzFW4M07DGLqmbjKopkodPoYY0OHvcA+yghYRRlZOHVZUUp+M7A6u8ID+wS+ogYVTN8CGurGhVpXLH13vXJ+wSpTAHndu69800OLiCFYxrH+OqzK5/2CVVjXw1KiZjXNFhhwqjwRfhqBrGuPxqxuWi6evbrlGZeMKosCeb+XT8hm71HkxC8Q4aItRFDA0NdXd3U5dSY/4Y41qyZEmNBtgtmsWm7eZV6urqwt9PkGFUyapKITF32931vmytl46vCcGsRoXN3JmPcVV2X2jYJUIgjArfF8xfonXlgJ1DgmnG5aIZJnZJVX0Mo8KqSqTT8XMhcH8xZOygJqZFYeCorpeWbrmcQ5Xsohk4dolYaPAx33MW7VEfx7gqsxgFdok6PDf1SzaAq+w/Tx8M5Lud+s/Z4OBgb2+venrSlGjGxbnzQiDf7dTh6Onp4RBGlWwAFydzt53l6Vva3GyEUdXi9ZIN4Mwr5UsO8WKXeAiDTs7CqFpuAOcLNOZ2xo5doqCDMCr3qyqZw0GXg2B3R1u6MCr1DeDo3MwtZ8FugkcwqmZxNSrdDeAmmBL0SXQfUFT6vOZhVBjjOnToUGdnp0pxEaaJ7gOKio+TMKrKe7ygpTg2NibMlUkd9LvctHK6YVSGG8CZmuvP89K2a+0rlT1efJmO37q2TlJI267spyB9r2hUDc04fBzB73I6sRyXKyBtu3J9xu9iVA1TtjJhVAhVQjNOmBuXSe1I3nZqOqVSjY6Obt26dfr06f39/e3t7ak7cqiqwP8ANWsK/LXxDHEAAAAASUVORK5CYII=;" vertex="1" parent="1">
          <mxGeometry x="1981.18" y="355.86" width="51" height="58.28" as="geometry" />
        </mxCell>
        <mxCell id="mBPd-7IohTFNbpZ4iidR-2" value="uploads" style="text;html=1;align=center;verticalAlign=middle;resizable=0;points=[];autosize=1;strokeColor=none;fillColor=none;" vertex="1" parent="1">
          <mxGeometry x="389.18" y="653" width="70" height="30" as="geometry" />
        </mxCell>
        <mxCell id="mBPd-7IohTFNbpZ4iidR-3" value="creates" style="text;html=1;align=center;verticalAlign=middle;resizable=0;points=[];autosize=1;strokeColor=none;fillColor=none;" vertex="1" parent="1">
          <mxGeometry x="236.62" y="440" width="60" height="30" as="geometry" />
        </mxCell>
        <mxCell id="mBPd-7IohTFNbpZ4iidR-4" value="" style="whiteSpace=wrap;html=1;" vertex="1" parent="1">
          <mxGeometry x="1665.37" y="10" width="804.63" height="190" as="geometry" />
        </mxCell>
        <mxCell id="mBPd-7IohTFNbpZ4iidR-5" value="" style="rounded=0;whiteSpace=wrap;html=1;fillColor=none;strokeWidth=2;strokeColor=default;" vertex="1" parent="1">
          <mxGeometry x="1927.4399999999998" y="70" width="150" height="110" as="geometry" />
        </mxCell>
        <mxCell id="mBPd-7IohTFNbpZ4iidR-6" value="Python" style="rounded=0;whiteSpace=wrap;html=1;fillColor=light-dark(#ffd243, #281d00);strokeColor=#d6b656;gradientColor=light-dark(#3772a0, #ededed);gradientDirection=east;" vertex="1" parent="1">
          <mxGeometry x="1937.4399999999998" y="130" width="130" height="40" as="geometry" />
        </mxCell>
        <mxCell id="mBPd-7IohTFNbpZ4iidR-7" value="SpringBoot" style="rounded=0;whiteSpace=wrap;html=1;fillColor=light-dark(#68bd45, #1f2f1e);strokeColor=light-dark(#587845, #446e2c);" vertex="1" parent="1">
          <mxGeometry x="1937.4399999999998" y="80" width="130" height="40" as="geometry" />
        </mxCell>
        <mxCell id="mBPd-7IohTFNbpZ4iidR-8" value="React" style="rounded=0;whiteSpace=wrap;html=1;fillColor=light-dark(#60dcfb, #1d293b);strokeColor=light-dark(#46aec8, #5c79a3);" vertex="1" parent="1">
          <mxGeometry x="1782.4899999999998" y="70" width="130" height="40" as="geometry" />
        </mxCell>
        <mxCell id="mBPd-7IohTFNbpZ4iidR-9" value="" style="shape=image;verticalLabelPosition=bottom;labelBackgroundColor=default;verticalAlign=top;aspect=fixed;imageAspect=0;image=https://upload.wikimedia.org/wikipedia/commons/thumb/a/a7/React-icon.svg/250px-React-icon.svg.png;" vertex="1" parent="1">
          <mxGeometry x="1825.0700000000002" y="130" width="44.84" height="40" as="geometry" />
        </mxCell>
        <mxCell id="mBPd-7IohTFNbpZ4iidR-10" value="" style="shape=image;verticalLabelPosition=bottom;labelBackgroundColor=default;verticalAlign=top;aspect=fixed;imageAspect=0;image=https://www.embarc.de/img/architektur-portraets/02/spring-boot-logo.png;" vertex="1" parent="1">
          <mxGeometry x="2105.6899999999996" y="80" width="43.76" height="39.26" as="geometry" />
        </mxCell>
        <mxCell id="mBPd-7IohTFNbpZ4iidR-11" value="" style="shape=image;verticalLabelPosition=bottom;labelBackgroundColor=default;verticalAlign=top;aspect=fixed;imageAspect=0;image=https://149860134.v2.pressablecdn.com/wp-content/uploads/pythoned.png;" vertex="1" parent="1">
          <mxGeometry x="2102.5699999999997" y="125" width="50" height="50" as="geometry" />
        </mxCell>
        <mxCell id="mBPd-7IohTFNbpZ4iidR-12" value="" style="endArrow=classic;dashed=1;html=1;strokeWidth=2;rounded=0;endFill=1;" edge="1" parent="1">
          <mxGeometry width="50" height="50" relative="1" as="geometry">
            <mxPoint x="1677.23" y="139.43000000000006" as="sourcePoint" />
            <mxPoint x="1742.4899999999998" y="140" as="targetPoint" />
          </mxGeometry>
        </mxCell>
        <mxCell id="mBPd-7IohTFNbpZ4iidR-13" value="Workflow" style="text;html=1;align=center;verticalAlign=middle;whiteSpace=wrap;rounded=0;" vertex="1" parent="1">
          <mxGeometry x="1682.4899999999998" y="99.25999999999999" width="60" height="30" as="geometry" />
        </mxCell>
        <mxCell id="mBPd-7IohTFNbpZ4iidR-14" value="Legend" style="text;strokeColor=none;align=center;fillColor=none;html=1;verticalAlign=middle;whiteSpace=wrap;rounded=0;fontSize=25;" vertex="1" parent="1">
          <mxGeometry x="1691.6100000000001" y="20" width="60" height="30" as="geometry" />
        </mxCell>
        <mxCell id="mBPd-7IohTFNbpZ4iidR-21" value="&lt;span style=&quot;font-size: 18px;&quot;&gt;Frontend&lt;/span&gt;" style="text;strokeColor=none;align=center;fillColor=none;html=1;verticalAlign=middle;whiteSpace=wrap;rounded=0;fontSize=25;" vertex="1" parent="1">
          <mxGeometry x="1817.4899999999998" y="30" width="60" height="30" as="geometry" />
        </mxCell>
        <mxCell id="mBPd-7IohTFNbpZ4iidR-22" value="&lt;span style=&quot;font-size: 18px;&quot;&gt;Backend&lt;/span&gt;" style="text;strokeColor=none;align=center;fillColor=none;html=1;verticalAlign=middle;whiteSpace=wrap;rounded=0;fontSize=25;" vertex="1" parent="1">
          <mxGeometry x="1976.2299999999998" y="30" width="60" height="30" as="geometry" />
        </mxCell>
        <mxCell id="mBPd-7IohTFNbpZ4iidR-23" value="&lt;span style=&quot;font-size: 18px;&quot;&gt;Database&lt;/span&gt;" style="text;strokeColor=none;align=center;fillColor=none;html=1;verticalAlign=middle;whiteSpace=wrap;rounded=0;fontSize=25;" vertex="1" parent="1">
          <mxGeometry x="2210" y="30" width="60" height="30" as="geometry" />
        </mxCell>
        <mxCell id="mBPd-7IohTFNbpZ4iidR-25" value="&lt;span style=&quot;font-size: 18px;&quot;&gt;Gateway&lt;/span&gt;" style="text;strokeColor=none;align=center;fillColor=none;html=1;verticalAlign=middle;whiteSpace=wrap;rounded=0;fontSize=25;" vertex="1" parent="1">
          <mxGeometry x="2340.87" y="30" width="60" height="30" as="geometry" />
        </mxCell>
        <mxCell id="mBPd-7IohTFNbpZ4iidR-26" value="" style="shape=image;verticalLabelPosition=bottom;labelBackgroundColor=default;verticalAlign=top;aspect=fixed;imageAspect=0;image=data:image/png,iVBORw0KGgoAAAANSUhEUgAAANIAAADwCAIAAAD6n60oAAAAAXNSR0IArs4c6QAAAERlWElmTU0AKgAAAAgAAYdpAAQAAAABAAAAGgAAAAAAA6ABAAMAAAABAAEAAKACAAQAAAABAAAA0qADAAQAAAABAAAA8AAAAAAvd4j2AAATQ0lEQVR4Ae2dX4hWxRvH19TowljxIrBAEKw2ULGgSFaF3IXINCLdRfNCqcRuaotEsS5sLwoKgzKCuthI0BJXRfxz5xrSSrIRCV0oChWhLgYrFoKBib+vv6Pvnj3vOeedOTPPnGdmHm88f+bMPPN9PnvemTPPzEy6detWm/zTUWB0dHTr1q3Tp0/v7+9vb2/XeVTS3lUA2Mk/RQVu3LjxwQcf3FXu9v87duxQfFaSpRWYhJO0jnJcpMDg4GBvb2/u3WPHjnV1deXekou5CtyTe1UuphU4ffr0/Pnzi5hDyu7ubmB3/vz59FNyXKZA+tUnxxkFLl++vHHjxjL5Jt7bvHnz1atXM5nIabMCbc2X5EqiANptE6FSPRsYGBANyxWQtl0OTENDQ/jdzLmhfGnGjBmHDh3q7OxUfiKuhNK2m+Dvs2fPLl++3JA55HjlypVFixatWrXq4sWLEwqQk0SB8pdhPHevX7+OlhkFFdu2bcOXl3iUVKmptO1uq4TWGAVw6Tz37t2r4o9I0sSO3fDw8OzZs9N80B3PmzdvZGQkErDKqxkvdpcuXVq5ciUdZEU5r169Gt9lyr0S/N0YsUMzDu2tIizcXMcgW8wNvuiwQxvLDVgqpUTb4IsIu19++eXxxx9XocFlGph05syZ4H9VMxWMAju0pdatW+cSJt2yYF5UDb7Asfvvv/8yoUq6QLhMj+E4GJx5MQR5GjJ2R44ccQmNlbIwqgazg0QtXakwsUNrqaOjwwoHtWSycOHCsBt8oWGnG6pUC1WKhfb19YUaRhUUdpVDlRQ5qCVZkGFUgQQ+mYcq1YKUeqEnTpxYsmSJenruKdMNPR+Pz507t3TpUu4q27BvxYoVqKyPPmq22eMfWYxxofVjw6E+5YHorABG1XzFzkGoEmcYd+/e3fwK8eiKf9ghVOnBBx/kzIQb2/CFCFJ4hFraVJ+wu3DhQi2hSm4wqlYKBPFxVM0P7DiEKlXDws1T3oVReYAd2jFunOd7KVicIP1DxvmYNXYIAUcguO80uLQf35K8+MjCFDu0VxD87dJhIZXFf1SNHXb4KLV9+/aQIKirLpxXo+KFnY+hSnVRpVIuvjRhVI1hI48LdojzYRhxruJa/mnQ4MO3J1bw1Y8dYnsiHONyDytG1fAdigl8NWMXZKiSe6TUS2QyqlYbdvjIpC6WpLSoABp8tS9OUAN28YQqWWTFelb4PlVjg88pdmhbEK2qZN0rkWSI1RFqmavmDjsZ42KLsvvFCVxgh09HzlZVYuta5obh6xVWTXDWz6XFTkKVmNOWMQ+LE7iZq0aFnYQqZTzq0amDxQlIsGO1qpJH/mZlKuniBJaxQ/tAQpVY0WNiDEbViBYnsIadhCqZOJjzs9gQxnqDzwJ2EqrEGRpbttkNozLFTkKVbPmVfz5YjcpWGFV17CRUiT8oFBZaiZuvgh1+6bU2gKOovORZrwIY5DRp8GljJ6FK9fqbVemVV6PSwE5ClVi5nIkxDzzwQIXFCZSwQ6jS888/z6SeYgZDBbA4gVYYVQvsJFSJoY/ZmqS+qV8ZdpGvqsTWu8wNUwmjysfO5QZwzEUU8yoogDCq8rj5LHZ1bQBXoW7yCHMFSvZ4GcdOQpWYe9FT87AaVXPc/B3sJFTJU6f6YnYmjKpNxrh88Zzvdqb3eJnke2XEfr8UwHQNGDyFudGYS7xhw4bFixfPmjWrvb0d1t68efPvv/8eGxvDmOBvv/32888/79y5k3ktrJuHz7PLli2bM2fOzJkzp02bdu3atdHRUXywPXz48J49e6wXZytDxLDYyooqH7yTyzvh6WlOGEeJZLAY1Swfg0fXkK0UwC7xGhU0hvlmWqBpwsqPERAGXg1L5/k4xifLgUsrg5QMt9Dlix1m1JovPR5e1ALGndJUKR5ze+0xxQ7hDPiNUNS0PBlC7YMJCkRwW3llS+6yIo8pdubvuYwDAlgBA72HTKV0T/n82nLETmUIWVdxpEe/hGdbTdEq9fZckTj4AVEsizoZO+zQDyhSzfw6+rnUghLlj9XDzauPHJj81LLDztaUpCInYd44ERmk2Zq/6hJBkA+pnYqZs8OuCBeL170bd8YXE4vVRxtREQ66ZA3s7qErQz1nN2st9vT04DOEulW1p3zppZcs2oBRDYu5GWbFAjtn25G///77HP7oFX326KOPKqZUSYaRNJVkbtKwwA6f69zUFqXs27fPl+1o7733XouyYPTWYm6GWbHAburUqYbV0Hrcl+6FXVkQMaClEmliFtiR1rA5c7xcfSGv2fgwrsSIHTy3YMEC7zq2YQCX1CJS7FB57zq2gl0gCqBjK7vW1uLLeN92idy7du3q6OioRfqYC40du8mTJ586dSpmAmqpe+zYQXRM0cD0uVrUj7ZQwe626/E7K6vhuvwbEOzuqI1xd8xfdyl9zGUJduPef/fdd6VjOy4H5ZFgN0Hd7777DqsVTbgkJwQKCHZZUb///vvsJTm3rYBgl1UUHVt/g+CzleF6LtjleObhhx+Wjm2OLvYuCXb5WqJji+kz+ffkqrECgl2hhO+88w6fGaaFVvp5Q7Ar89s333wjHdsygareE+xaKCcd2xYCVbot2LWQTTq2LQSqdFuway0bOrbhLSHVutqUKQQ7JXW7urqkY6uklFoiwU5Np7Y2dGyDWblMtc5k6QQ7DWm//PLLUJcK1VDBRlLBTk/F48eP6z0gqfMUCBC78+fPY9uXvMpauHbffffJiK25jgFi9+eff7722mvm0hTlIB3bImXUrweIHdZwwE4Vn3/+uboKuinRsWWyUKGu5UzSB4hdouybb745NDREp/Ibb7whHdvK8gaLHRTp7u5GO6+yNC0flI5tS4mKEoSMHer8yCOP/Pvvv0WVN78uHdtqGgaOHUR56qmnqkmj8hQ6ttjpSyWlpEkrED52v/766+uvv56us93jhx56COt9280z+NzCxw4u/Oqrrz755BM6X2IR3IGBAbr8w8s5Cuzgtk2bNh09epTOf6+88kpfXx9d/oHlHAt2cNvy5cvPnj1L579PP/1URmwV5Y0IOyjy2GOPYQtkRWkqJJOOraJocWEHUUjnRkjHVrDLV+D3339fs2ZN/j0bV9GxHR4etpFTyHlE97aDM/fs2fPhhx/SebWzs1M6tuXyxogdFHnvvfcGBwfLpTG5i46tmx2tTIys8dlIsYPivb29p0+fppP+o48+wtICdPl7nXO82MFt6F789ddfdP47ePAgXeZe5xw1dgl5dKHIU6ZMuXTpktd8EBkfO3bA4sUXXyQSF9ligznp2DbLGzt2UASDZlu2bGmWxtYV6dg2KynY3dbk448//vrrr5vVsXVFOrYZJQW7O4K8+uqrP/30U0Ydi6fo2K5YscJihl5nJdiNuw8BoaOjo+Pnto8OHDjgyw7KtquezU+wm6DI3Llz6YLg0bGVfWwTuQW7CdhduXKF9BsvdlAeGRmZUGSUJ4Jd1u0IXnrrrbeyV+2dP/nkk7t377aXn5c5CXY5bvvss89IZ3e//PLL27Ztyyk4mkuCXb6rqWd3YwflmDu2gl0+drhKPbs75o6tYFeIHW5gdjddEHzMHVvBrgw73HvuuedapDC4jY5tnJ9UBLsW1Pz444/r169vkcjg9oIFC/bu3WuQgZePCnat3YZly0iD4Ht6emLbQVmwa40dUiAInnR2d2w7KAt2StghEfXsbuygjKaeqjWepxPsNByI2d2kQfDxrIos2Glgh6RPP/203gM6qbHRVCQdW8FOh4u2NszuXrVqld4zOqkj6dgKdjpQ/D/t/v37MbSl/ZjyAzF0bAU7ZRxSCfv7+7/99tvUBcuH6Ngi/urGjRuW82WTnWBX0RVr164lnd29b9++gEORBbuK2OExzO6mC4LH4lFYxae6cbyfFOyM/IPJiHSzu40s4/2wYGfkH3Rsn332WaMsonxYsDN1O4Lg3377bdNcIntesLPgcKxaTDq724KJzLIQ7Ow4BLO7T548aSevCHIR7Kw5edGiRRcvXrSWXdAZCXY23Tt//ny62d02Da07L8HOpgeoZ3fbtLXWvAQ7y/KjY0saBG/Z3JqyE+zsC0+9d7d9i53nKNiRSE49u5vEaIeZCnZUYmN2N+kWZ1R2O8lXsCOUmXqLM0LTibMW7GgFfuaZZ2gL8DN3wY7Wb5gbQbrFGa31ZLkLdmTS3s2Yeouzu+X49L9g58Jb1LO7XdTBahmCnVU5izPD7G7SIPjikjneEezceYV6izN3NTEuSbAzllAnA9K9u3UMqTmtYOfUAdji7IUXXnBaJMvCBDvXbjl8+DDp7G7X9alUnmBXSTazh6hnd5tZ5+Jpwc6Fys1lYHY36RZnzSWyusICO7urLtjNjc5b2OLMZRD85MmT6eqimzML7P755x9du0vSexRW/sQTTzizltU+3iyws/sd1aNwIyzSSLrFWfqP84cffkifynHbwoULb9n7t3TpUr80xRZn9mpfmBNErl2WGTNmJPbVbskdA65evVoomM6Ny5cvc6mSjh0DAwM6tdROy2R5WnbYYYV8bS3zHvB3pX3sTpFXITvXVq9erfNXQJWWHXaoKF5UhhrjlUklmJN8jxw5YqhA7uPDw8NOzG9dCEfssONgrmrqF1euXNm66rxT2HrrN0Rj9afIETvwsHnz5oZeugfbt2/nTZSqdejb2mrpXr9+nVXwAVPs4Bns76sLHNIHw1yDTeywXUGH9CNotHBbhpYvdtBd688df9Dr1q1reCukA2zKU7mfgWYiQylYY5fotWPHjvLfGgyC4bsDQ3Gtm4QG35kzZ9JvspLjkZERDp/ockVoYDcp9zafi+glLFu2bM6cOTNnzpw2bdq1a9fA4h9//IGtpzE1ho+dbiyBGkCqo6MDL8L7778fu/ZgpPXmzZv4PcXwLoZnvvjiC6xr68aYCqUAu7GxMTzIHbsKdZNHOCuA9zTMuwcTOVl1djhLJraZKID3NJoKd3JIWgkRbuBsoqA8q6tA5kt4W6Nxii4hPl7oZifpRYFyBdAfwtYdDcySg3HsknNEZQXwrb9cCLnrRgF82Coa8Mxil8CHUbzZs2e7MU5KCU8B9BbwHSfzhkuf5mOXpIjkq1h4Xq+3RiqfuMuwA3xo8GGctN5qSOm+KIC+Ab7hp99qRcctsEseQ5Cgs9hrXyQWO9MKoD9w4cKFIsiarythlzx27NixdElyLApAAYyXoCfQDFb5FQ3skowwVCpyiwKJApVj8bWxA3wYFd24caNIH7MCaPGXB2pYfts1ssNAh4yqRUgeJuahrd/AoNpBlbdduiSecV0R0uCgyogfOXHiRNr7lY9NsUPB6DOHF9zrwIt+FYE2fWXImh+0gF2SKYZBmMyK88ud/K1FO96kGdfMHK5Ywy7JHWFU8+bN4y+lWKiiAJpx6lHNuXgVXbSMXVKMhFGpOJV5mkyoUhFA1a6TYAdTJIyKOVUl5qEZ1xyqVA2voqeosEvKw4CJhFGVOJjbLYQqWW/G5ZJHi11SJHrdEkbFjbCMPfgEi3Z5LiIUF11gl9iN+caZqsopEwVUQpXswucOO9gtYVRMOGuYgVAl6mZcLq9OsUsswNCKdysfNvwUzAE+smqFKuXSU/liDdgltkoYVV0EY2GU8ojzyjCpP1gbdomJEkblGD7zFX3U2SpJWTN2sAw99r6+PsfqR1gcQpXQti5BweWt+rFLaithVHR/CWhJ19iMy6WZC3aJcRJGZRc+NONshSrl0lP5Ii/sUA0Jo7JFnt1QpcqE5T7IDrvESgmjMoEPbWU3Y1y5SKlcZIpdYjr6+RJGpcWflYhzFW4M07DGLqmbjKopkodPoYY0OHvcA+yghYRRlZOHVZUUp+M7A6u8ID+wS+ogYVTN8CGurGhVpXLH13vXJ+wSpTAHndu69800OLiCFYxrH+OqzK5/2CVVjXw1KiZjXNFhhwqjwRfhqBrGuPxqxuWi6evbrlGZeMKosCeb+XT8hm71HkxC8Q4aItRFDA0NdXd3U5dSY/4Y41qyZEmNBtgtmsWm7eZV6urqwt9PkGFUyapKITF32931vmytl46vCcGsRoXN3JmPcVV2X2jYJUIgjArfF8xfonXlgJ1DgmnG5aIZJnZJVX0Mo8KqSqTT8XMhcH8xZOygJqZFYeCorpeWbrmcQ5Xsohk4dolYaPAx33MW7VEfx7gqsxgFdok6PDf1SzaAq+w/Tx8M5Lud+s/Z4OBgb2+venrSlGjGxbnzQiDf7dTh6Onp4RBGlWwAFydzt53l6Vva3GyEUdXi9ZIN4Mwr5UsO8WKXeAiDTs7CqFpuAOcLNOZ2xo5doqCDMCr3qyqZw0GXg2B3R1u6MCr1DeDo3MwtZ8FugkcwqmZxNSrdDeAmmBL0SXQfUFT6vOZhVBjjOnToUGdnp0pxEaaJ7gOKio+TMKrKe7ygpTg2NibMlUkd9LvctHK6YVSGG8CZmuvP89K2a+0rlT1efJmO37q2TlJI267spyB9r2hUDc04fBzB73I6sRyXKyBtu3J9xu9iVA1TtjJhVAhVQjNOmBuXSe1I3nZqOqVSjY6Obt26dfr06f39/e3t7ak7cqiqwP8ANWsK/LXxDHEAAAAASUVORK5CYII=;" vertex="1" parent="1">
          <mxGeometry x="2345.37" y="110.00000000000003" width="51" height="58.28" as="geometry" />
        </mxCell>
        <mxCell id="mBPd-7IohTFNbpZ4iidR-27" value="&lt;font style=&quot;font-size: 14px;&quot;&gt;Nginx&lt;/font&gt;" style="text;html=1;align=center;verticalAlign=middle;whiteSpace=wrap;rounded=0;" vertex="1" parent="1">
          <mxGeometry x="2336.37" y="69.9999999999999" width="60" height="30" as="geometry" />
        </mxCell>
        <mxCell id="mBPd-7IohTFNbpZ4iidR-28" value="" style="shape=cylinder3;whiteSpace=wrap;html=1;boundedLbl=1;backgroundOutline=1;size=15;" vertex="1" parent="1">
          <mxGeometry x="437.5399999999999" y="-1097.5" width="81.48" height="125" as="geometry" />
        </mxCell>
        <mxCell id="64x59cSJdGSDIxU7Kyna-68" value="&lt;font style=&quot;font-size: 14px;&quot;&gt;PostgeSQL&lt;/font&gt;" style="text;html=1;align=center;verticalAlign=middle;whiteSpace=wrap;rounded=0;" parent="1" vertex="1">
          <mxGeometry x="449.7699999999999" y="-1061.5" width="60" height="30" as="geometry" />
        </mxCell>
        <mxCell id="64x59cSJdGSDIxU7Kyna-67" value="" style="shape=image;verticalLabelPosition=bottom;labelBackgroundColor=default;verticalAlign=top;aspect=fixed;imageAspect=0;image=https://www.postgresql.org/media/img/about/press/elephant.png;" parent="1" vertex="1">
          <mxGeometry x="454.0500000000001" y="-1031.5" width="48.47" height="50" as="geometry" />
        </mxCell>
        <mxCell id="mBPd-7IohTFNbpZ4iidR-29" value="" style="shape=cylinder3;whiteSpace=wrap;html=1;boundedLbl=1;backgroundOutline=1;size=15;" vertex="1" parent="1">
          <mxGeometry x="2189" y="63" width="100" height="135" as="geometry" />
        </mxCell>
        <mxCell id="mBPd-7IohTFNbpZ4iidR-16" value="&lt;font style=&quot;font-size: 14px;&quot;&gt;PostgeSQL&lt;/font&gt;" style="text;html=1;align=center;verticalAlign=middle;whiteSpace=wrap;rounded=0;" vertex="1" parent="1">
          <mxGeometry x="2208.9999999999995" y="99.26" width="60" height="30" as="geometry" />
        </mxCell>
        <mxCell id="mBPd-7IohTFNbpZ4iidR-15" value="" style="shape=image;verticalLabelPosition=bottom;labelBackgroundColor=default;verticalAlign=top;aspect=fixed;imageAspect=0;image=https://www.postgresql.org/media/img/about/press/elephant.png;" vertex="1" parent="1">
          <mxGeometry x="2215.77" y="134.86" width="48.47" height="50" as="geometry" />
        </mxCell>
        <mxCell id="mBPd-7IohTFNbpZ4iidR-30" value="Display Summarized Content" style="ellipse;whiteSpace=wrap;html=1;" vertex="1" parent="1">
          <mxGeometry x="2335.37" y="-894.61" width="120" height="60" as="geometry" />
        </mxCell>
        <mxCell id="mBPd-7IohTFNbpZ4iidR-31" value="" style="endArrow=none;html=1;rounded=0;exitX=0.5;exitY=0;exitDx=0;exitDy=0;entryX=0.5;entryY=1;entryDx=0;entryDy=0;" edge="1" parent="1" source="fCOX_nbEypZg6_mmMfVf-1" target="mBPd-7IohTFNbpZ4iidR-30">
          <mxGeometry width="50" height="50" relative="1" as="geometry">
            <mxPoint x="2150" y="-623" as="sourcePoint" />
            <mxPoint x="2180" y="-670" as="targetPoint" />
          </mxGeometry>
        </mxCell>
        <mxCell id="mBPd-7IohTFNbpZ4iidR-32" value="&amp;lt;&amp;lt; includes &amp;gt;&amp;gt;" style="edgeLabel;html=1;align=center;verticalAlign=middle;resizable=0;points=[];" vertex="1" connectable="0" parent="mBPd-7IohTFNbpZ4iidR-31">
          <mxGeometry x="-0.0576" y="-3" relative="1" as="geometry">
            <mxPoint as="offset" />
          </mxGeometry>
        </mxCell>
      </root>
    </mxGraphModel>
  </diagram>
</mxfile>
